<svg width="750" height="302" viewBox="0 0 750 302" fill="none" xmlns="http://www.w3.org/2000/svg">
<path fill-rule="evenodd" clip-rule="evenodd" d="M193.069 0.217493C191.245 0.729556 180.204 9.13143 134.766 44.5844C124.196 52.8323 112.02 62.2203 107.709 65.4466C101.749 69.9069 100.12 71.3398 100.912 71.4234C101.485 71.4834 109.442 70.7395 118.594 69.7698L135.235 68.0069L135.363 75.9216L135.492 83.8363L134.081 85.4452C132.011 87.8056 131.833 88.9856 132.903 93.2543C133.133 94.1733 132.99 94.4723 132.222 94.6732C131.186 94.9449 131.201 94.4976 131.201 125.054C131.201 126.861 131.212 130.668 131.225 133.514L131.25 138.689L138.633 138.56L146.016 138.431L146.138 116.681C146.26 94.9309 146.26 94.9304 145.275 94.6727C144.486 94.4657 144.349 94.1728 144.583 93.19C145.57 89.0367 145.478 88.2637 143.722 85.9606L142.032 83.7434V75.5424C142.032 65.9728 140.988 67.172 150 66.3853C153.223 66.1042 156.335 65.7737 156.914 65.6512L157.969 65.4288V76.0197V86.6102L161.836 83.1727C181.241 65.923 202.987 56.0967 227.11 53.6757C238.724 52.5103 255.166 53.8433 268.037 56.9941C271.211 57.7708 274.108 58.4063 274.475 58.4063C275.036 58.4063 275.163 56.0957 275.268 43.9855L275.391 29.5647L298.594 15.8526C326.033 -0.362621 323.276 1.33172 322.887 0.921979C322.712 0.738463 298.454 0.500988 268.98 0.394445C239.506 0.287433 210.645 0.126434 204.844 0.0367878C199.043 -0.0533278 193.745 0.0278747 193.069 0.217493ZM504.798 52.9844C490.617 56.9002 480.775 70.578 477.851 90.4326C477.248 94.5216 477.129 97.6878 477.323 104.403C477.624 114.79 478.925 123.04 482.418 136.714C483.715 141.789 484.883 146.401 485.015 146.964C485.196 147.737 485.728 148.065 487.198 148.307C490.005 148.771 495.93 150.694 499.516 152.304C502.16 153.492 502.579 153.575 502.378 152.869C502.248 152.414 501.273 149.191 500.211 145.706C490.262 113.061 492.7 88.6373 506.82 79.4995C510.761 76.949 514.552 76.0582 520.175 76.3624C526.351 76.6961 529.476 77.7666 540.939 83.473C554.188 90.0693 563.748 93.022 572.36 93.1773C576.086 93.2449 580.316 92.7587 580.311 92.2635C580.31 92.0992 578.049 91.1338 575.288 90.1181C563.821 85.9005 558.18 82.3287 547.694 72.6474C535.305 61.2102 531.451 58.2266 525.325 55.334C523.471 54.4586 520.697 53.419 519.161 53.0238C515.793 52.1569 507.872 52.1353 504.798 52.9844ZM643.361 58.6293C637.971 59.6271 634.475 60.6644 624.377 64.262C610.449 69.2235 603.347 71.4248 596.72 72.8338C591.55 73.9334 589.777 74.0832 581.641 74.1048L572.422 74.1296L574.61 75.4978C579.802 78.7443 586.084 80.3692 594.481 80.6377C602.719 80.9015 607.718 80.349 624.129 77.3625C639.053 74.6464 644.442 75.1509 648.973 79.6877C652.82 83.5401 655.014 90.188 656.282 101.844C657.425 112.342 656.218 133.786 653.478 151.66C652.051 160.964 648.374 179.149 647.063 183.387C646.823 184.161 647.201 184.214 652.114 184.091L657.423 183.958L660.294 175.393C666.995 155.402 671.495 136.186 674.116 116.371C675.639 104.865 675.654 89.3465 674.15 82.4325C671.119 68.4955 665.533 61.4327 655.516 58.8672C651.4 57.8135 648.115 57.7492 643.361 58.6293ZM376.289 74.9238C368.547 91.5374 350.256 130.872 348.284 135.145C347.57 136.694 344.72 142.819 341.951 148.757C339.182 154.694 334.962 163.776 332.573 168.939C327.513 179.874 327.998 178.829 313.71 209.538C307.645 222.574 302.088 234.56 301.361 236.173L300.04 239.107H314.954H329.869L334.467 228.898C336.996 223.284 341.158 214.043 343.715 208.364C346.272 202.685 350.648 192.97 353.439 186.774C358.527 175.481 360.634 170.797 375.257 138.274C382.537 122.085 383.181 120.836 383.719 121.865C384.04 122.478 387.69 130.526 391.83 139.751C395.97 148.976 399.63 157.044 399.963 157.679L400.568 158.836L404.308 156.05C408.584 152.866 414.93 149.592 419.886 148.012C422.696 147.116 423.241 146.783 423.023 146.095C422.877 145.637 418.844 136.861 414.06 126.592C409.275 116.324 400.514 97.4682 394.589 84.69C388.665 71.9119 383.664 61.1807 383.477 60.8432C383.269 60.4677 380.475 65.9404 376.289 74.9238ZM226.876 61.2868C205.741 63.4556 186.562 72.8122 171.552 88.2769C163.327 96.7505 159.239 102.592 154.024 113.321L151.172 119.187L151.031 130.1L150.89 141.012H148.598C147.337 141.012 146.19 141.2 146.048 141.43C145.416 142.454 145.219 154.293 145.746 159.552C148.557 187.559 162.492 211.054 185.527 226.626C200.686 236.875 218.17 242.091 237.188 242.041C248.408 242.011 258.75 240.176 268.123 236.552C297.727 225.104 316.302 200.015 319.734 166.844C320.29 161.471 320.103 144.88 319.475 143.863C319.258 143.51 306.72 143.359 277.707 143.359H236.251V156.032V168.704H263.438H290.626V170.313C290.626 173.628 289.585 179.392 288.312 183.124C283.71 196.619 272.007 207.178 256.743 211.607C249.763 213.632 246.812 213.998 237.657 213.972C225.444 213.936 218.542 212.399 208.36 207.445C190.898 198.95 179.052 183.781 174.778 164.442C173.901 160.474 173.696 158.136 173.69 152.042C173.681 143.709 174.237 139.741 176.353 133.033C179.445 123.232 184.542 114.859 191.941 107.424C203.824 95.4837 219.217 88.9142 235.313 88.9142C241.953 88.9142 247.538 89.8285 253.894 91.9561C258.906 93.6336 266.365 97.1851 270.678 99.9477L273.253 101.597L292.603 101.475L311.954 101.352L304.688 94.0574C300.692 90.0454 295.208 84.9895 292.501 82.822C271.691 66.1619 249.699 58.9447 226.876 61.2868ZM26.3673 63.925L0 64.0466V151.576V239.107H28.7467C45.5228 239.107 59.6256 238.899 62.6139 238.608C74.988 237.402 87.2341 233.935 97.4918 228.732C121.687 216.461 136.398 193.907 139.698 164.025C140.272 158.826 140.364 142.67 139.824 141.826C139.561 141.415 137.678 141.247 133.36 141.247H127.266L127.032 120.83L126.797 100.413L124.46 97.1279C119.547 90.2223 110.454 81.7937 103.016 77.2503C91.7665 70.3795 78.2472 66.0352 63.5158 64.5581C56.012 63.8062 55.217 63.7926 26.3673 63.925ZM629.284 86.7707C625.167 87.8371 620.499 89.5807 608.439 94.5572C596.978 99.2869 585.828 101.604 574.397 101.633C561.271 101.665 551.712 99.2343 534.821 91.5689C531.07 89.8665 526.644 88.1253 524.985 87.7C516.866 85.617 510.413 89.2155 505.798 98.4012C503.053 103.865 502.334 107.832 502.64 115.832C503.001 125.255 505.078 133.628 510.383 147.049L513.048 153.789L517.501 155.641C548.115 168.379 586.173 178.084 619.22 181.581C626.439 182.345 642.201 183.428 642.385 183.172C642.576 182.905 644.477 169.678 645.442 161.898C648.243 139.328 649.158 119.01 648.039 104.219C647.492 96.9664 645.107 90.2711 642.199 87.8216C639.301 85.3795 635.769 85.0918 629.284 86.7707ZM27.6563 151.585V212L43.2423 211.764C56.1939 211.567 59.7395 211.363 64.2189 210.559C83.6018 207.077 97.9779 197.089 105.773 181.686C107.974 177.339 110.412 169.887 111.402 164.48C112.53 158.322 112.53 144.823 111.402 138.666C106.794 113.507 90.5547 97.4921 64.4533 92.3639C61.6548 91.8139 56.5103 91.5689 44.1798 91.399L27.6563 91.1709V151.585ZM441.095 150.453C426.878 152.075 411.288 157.901 398.507 166.369C383.432 176.357 367.866 192.183 357.944 207.611C356.729 209.498 356.898 209.391 359.939 206.346C365.11 201.169 377.991 193.039 392.798 185.606C397.845 183.072 407.713 179.03 408.85 179.03C409.24 179.03 412.996 186.856 418.481 199.095C423.426 210.13 429.188 222.961 431.285 227.608C433.382 232.254 435.395 236.743 435.759 237.581L436.42 239.107H451.43C465.577 239.107 466.416 239.059 466.01 238.285C465.773 237.833 460.676 226.904 454.683 213.997C448.691 201.089 442.022 186.751 439.863 182.133C437.705 177.515 435.939 173.66 435.939 173.567C435.939 173.184 452.133 173.433 456.631 173.886C474.645 175.699 491.208 180.194 520.079 191.105C552.574 203.384 561.132 206.338 573.517 209.546C611.316 219.338 650.638 216.891 687.424 202.459C706.567 194.948 730.036 181.142 743.68 169.365C745.746 167.582 747.961 165.749 748.602 165.293C749.243 164.837 746.92 165.933 743.439 167.729C698.546 190.894 650.7 195.624 589.157 182.98C571.313 179.315 555.463 175.136 524.298 165.884C482.07 153.347 465.799 149.845 450.47 149.995C447.247 150.026 443.028 150.232 441.095 150.453ZM69.821 261.337C65.816 262.2 62.0917 264.327 59.3041 267.342C53.1245 274.025 51.8265 282.891 55.8573 290.886C61.5737 302.224 77.2188 305.597 86.9205 297.582C90.7859 294.389 93.4723 287.888 93.1882 282.418L93.0471 279.706H83.6721H74.2971L74.1578 282.626L74.0186 285.546L80.3041 285.676L86.5896 285.807L85.9947 288.154C84.4844 294.113 76.7158 297.166 69.3208 294.707C65.6336 293.481 61.7472 289.473 60.6794 285.795C59.139 280.489 60.5364 275.093 64.4341 271.3C69.4938 266.377 76.5274 266.017 82.6183 270.369C83.8436 271.245 84.9456 271.961 85.0671 271.961C85.1885 271.961 86.0275 270.862 86.9313 269.518L88.5752 267.074L87.6063 266.041C85.3033 263.586 77.6782 260.655 73.8283 260.743C73.0549 260.761 71.2516 261.028 69.821 261.337ZM180.475 280.997L180.469 301.531H183.743H187.017L187.141 288.772L187.266 276.014L199.683 289.007C206.512 296.153 212.26 302 212.456 302C212.653 302 212.813 292.935 212.813 281.856V261.713L209.531 261.557L206.248 261.401L206.25 274.305L206.251 287.21L198.419 278.999C194.112 274.483 188.314 268.465 185.534 265.625L180.48 260.462L180.475 280.997ZM279.025 261.409C275.047 262.274 271.895 264.089 268.888 267.246C266.018 270.259 264.675 272.641 263.67 276.505C260.842 287.375 267.491 298.522 278.486 301.346C283.052 302.519 288.421 302.054 292.28 300.151C299.141 296.769 303.217 289.654 302.721 281.927L302.579 279.706H293.204H283.829L283.689 282.639L283.55 285.573H289.666H295.782V286.77C295.782 289.29 293.417 292.583 290.549 294.056C287.633 295.553 284.772 295.983 281.582 295.404C277.79 294.716 275.807 293.641 273.222 290.874C266.455 283.63 269.367 271.733 278.77 268.21C283.279 266.522 287.783 267.248 292.15 270.369C293.375 271.245 294.477 271.961 294.599 271.961C294.72 271.961 295.558 270.863 296.461 269.521C298.018 267.205 298.061 267.036 297.306 266.2C295.841 264.579 290.75 262.082 287.507 261.394C283.667 260.58 282.83 260.581 279.025 261.409ZM350.157 261.211C344.624 262.288 338.206 267.404 335.809 272.647C330.535 284.18 336.166 296.963 348.335 301.083C352.137 302.37 357.956 302.19 361.876 300.664C367.047 298.65 371.706 293.975 373.639 288.858C379.357 273.73 366.089 258.109 350.157 261.211ZM418.462 280.812C413.379 291.875 409.22 301.063 409.22 301.229C409.22 301.395 410.709 301.531 412.531 301.531H415.841L417.223 298.48L418.604 295.429H427.97H437.335L438.717 298.48L440.099 301.531H443.409C445.23 301.531 446.72 301.403 446.72 301.249C446.72 301.093 443.793 294.599 440.215 286.816C436.637 279.033 432.475 269.973 430.966 266.681C429.457 263.39 428.106 260.697 427.963 260.697C427.821 260.697 423.545 269.749 418.462 280.812ZM510.294 261.071C509.997 261.553 493.491 297.398 492.365 300.005L491.707 301.531H495.159H498.611L499.905 298.48L501.2 295.429H510.653H520.105L521.433 298.48L522.76 301.531H525.99C528.102 301.531 529.22 301.345 529.22 300.994C529.22 300.489 527.78 297.233 523.126 287.215C522.046 284.892 518.944 278.133 516.232 272.196C513.52 266.259 511.138 261.224 510.939 261.008C510.739 260.792 510.449 260.82 510.294 261.071ZM544.435 261.323C540.495 262.329 537.567 264.018 534.578 267.005C529.591 271.992 527.541 278.131 528.667 284.707C529.828 291.49 534.075 297.026 540.46 300.079C543.815 301.684 544.224 301.765 548.916 301.765C553.513 301.765 554.052 301.664 556.889 300.266C558.563 299.442 560.536 298.136 561.274 297.364L562.617 295.961L561.622 294.404C559.308 290.785 559.482 290.857 557.133 292.547C554.056 294.759 551.835 295.543 548.639 295.545C545.146 295.547 542.257 294.355 539.432 291.747C533.576 286.343 533.315 277.452 538.847 271.833C544.137 266.461 551.27 265.879 557.11 270.343L559.172 271.918L560.917 269.538C562.206 267.78 562.544 266.972 562.214 266.447C561.59 265.457 556.109 262.2 554.092 261.621C551.302 260.82 546.93 260.685 544.435 261.323ZM582.751 261.468C582.218 262.474 566.003 297.713 565.019 300.005L564.364 301.531H567.833H571.302L572.597 298.48L573.892 295.429H583.327H592.762L594.089 298.48L595.416 301.531H598.646C600.699 301.531 601.876 301.341 601.876 301.01C601.876 300.432 584.121 261.638 583.564 260.999C583.371 260.777 583.005 260.988 582.751 261.468ZM674.415 280.762C674.479 291.797 674.531 300.985 674.532 301.179C674.532 301.372 675.9 301.531 677.571 301.531H680.609L680.735 290.648L680.861 279.765L687.189 290.16C690.67 295.877 693.64 300.563 693.79 300.573C693.94 300.583 696.893 295.972 700.353 290.324L706.642 280.056L706.768 290.815L706.894 301.573L710.05 301.434L713.205 301.296L713.327 280.997C713.405 268.033 713.284 260.697 712.992 260.697C712.74 260.697 712.305 261.127 712.024 261.653C711.743 262.178 707.536 268.656 702.675 276.048L693.838 289.487L684.368 275.092C679.16 267.175 674.763 260.697 674.598 260.697C674.433 260.697 674.351 269.726 674.415 280.762ZM4.1311 263.161C4.05047 264 4.04202 272.976 4.11233 283.109L4.23987 301.531L10.4405 301.527C13.8506 301.525 18.0118 301.303 19.6875 301.033C25.433 300.108 30.2467 297.185 32.7606 293.095C35.0753 289.328 35.7488 286.217 35.544 280.238C35.334 274.119 34.2498 271.155 30.8813 267.496C26.7376 262.995 22.3665 261.649 11.8655 261.641L4.27827 261.636L4.1311 263.161ZM41.6312 263.161C41.5506 264 41.5421 272.976 41.6124 283.109L41.74 301.531H44.7765H47.8126V281.583V261.636H44.7953H41.7784L41.6312 263.161ZM98.9065 281.583V301.531H101.953C103.629 301.531 105.003 301.372 105.005 301.179C105.008 300.985 105.061 292.008 105.123 281.231L105.235 261.636H102.071H98.9065V281.583ZM112.969 281.583V301.531L119.649 301.523C123.632 301.518 127.61 301.242 129.502 300.841C133.498 299.993 137.802 297.718 139.985 295.298C146.486 288.093 146.269 274.251 139.547 267.363C135.045 262.75 131.362 261.636 120.605 261.636H112.969V281.583ZM150.469 281.583V301.531H162.188C169.659 301.531 173.922 301.361 173.949 301.061C173.973 300.803 173.992 299.958 173.992 299.184C173.992 298.409 173.973 297.142 173.949 296.368L173.907 294.96H165.235H156.563V289.562V284.165H164.063H171.563L171.618 281.935C171.675 279.65 171.582 278.41 171.333 278.151C171.255 278.071 167.953 277.965 163.994 277.916L156.797 277.828V272.9V267.972L165.352 267.844L173.907 267.716V264.676V261.636H162.188H150.469V281.583ZM217.501 264.687V267.737H222.891H228.282V284.634V301.531H231.323H234.364L234.487 284.751L234.61 267.972L239.883 267.839L245.157 267.706V264.671V261.636H231.329H217.501V264.687ZM308.438 281.583V301.531H320.391H332.345V298.245V294.96H323.427H314.508L314.532 279.823C314.546 271.498 314.551 264 314.544 263.161L314.532 261.636H311.485H308.438V281.583ZM380.626 281.625V301.616L389.884 301.447C398.815 301.284 399.224 301.234 401.485 300.043C404.229 298.597 405.46 297.346 406.832 294.609C409.696 288.895 407.655 282.36 402.227 279.867C399.895 278.796 399.886 278.784 400.778 277.833C404.289 274.091 403.687 268.02 399.443 264.384C396.736 262.064 394.838 261.636 387.251 261.636H380.626V281.625ZM451.32 263.161C451.239 264 451.231 272.976 451.301 283.109L451.428 301.531H463.371H475.314V298.245V294.96H466.407H457.501V278.298V261.636H454.484H451.467L451.32 263.161ZM606.564 281.539V301.531L613.009 301.527C620.934 301.523 624.671 300.947 628.424 299.153C632.077 297.408 635.632 293.618 637.092 289.913C638.511 286.312 638.657 277.719 637.362 274.004C635.532 268.752 631.938 265.001 626.792 262.97C624.468 262.053 623.062 261.901 615.353 261.736L606.564 261.548V281.539ZM644.064 281.583V301.531H656.017H667.97V298.245V294.96H659.298H650.627V289.562V284.165H658.127H665.627V281.114V278.063H658.127H650.627V272.9V267.737H659.298H667.97V264.687V261.636H656.017H644.064V281.583ZM720.331 266.212C721.778 268.729 724.722 273.801 726.873 277.485L730.783 284.181V292.856V301.531H733.83H736.877L736.929 294.373C736.957 290.436 736.941 286.736 736.894 286.15C736.824 285.287 743.809 272.504 749.08 263.849C749.585 263.019 749.999 262.181 750 261.988C750.001 261.794 748.459 261.636 746.573 261.636H743.144L738.751 269.172C736.334 273.317 734.238 276.782 734.093 276.871C733.948 276.961 731.826 273.571 729.377 269.339L724.924 261.644L721.312 261.64L717.701 261.636L720.331 266.212ZM350.102 267.887C344.294 270.063 340.843 274.545 340.419 280.464C340.132 284.471 341.15 287.609 343.666 290.471C347.291 294.594 352.032 296.254 357.22 295.216C360.277 294.605 362.603 293.244 364.851 290.753C367.388 287.941 368.106 286.187 368.34 282.22C368.527 279.064 368.402 278.302 367.298 275.884C364.867 270.555 360.765 267.715 355.079 267.421C353.06 267.317 351.145 267.497 350.102 267.887ZM10.3125 281.286V294.96H14.5261C21.488 294.96 25.6215 292.833 27.9713 288.041C30.5382 282.807 29.4713 275.297 25.6332 271.578C23.1394 269.162 20.0452 268.084 14.8828 267.834L10.3125 267.612V281.286ZM119.063 281.338V295.063L124.102 294.882C128.61 294.719 129.405 294.555 131.652 293.32C136.075 290.889 138.282 286.982 138.282 281.583C138.282 277.378 137.087 274.365 134.37 271.72C131.446 268.874 129.606 268.214 123.633 267.873L119.063 267.612V281.338ZM386.804 272.548L386.954 277.359L389.725 277.502C391.249 277.581 393.102 277.394 393.842 277.086C397.653 275.506 398.145 270.56 394.693 268.519C393.791 267.986 392.305 267.737 390.012 267.737H386.653L386.804 272.548ZM613.009 267.999C612.816 268.199 612.658 274.347 612.658 281.662V294.96H616.791C621.917 294.96 625.003 294.076 627.577 291.869C630.728 289.169 632.001 285.998 631.941 281.003C631.876 275.547 629.492 271.521 625.033 269.337C622.903 268.293 621.6 268.021 617.894 267.848C615.401 267.731 613.202 267.799 613.009 267.999ZM507.26 282.124C505.419 286.175 503.989 289.565 504.08 289.657C504.171 289.749 507.207 289.764 510.824 289.693L517.402 289.562L514.183 282.339C512.413 278.367 510.884 275.036 510.786 274.937C510.688 274.839 509.101 278.073 507.26 282.124ZM579.927 282.134C578.081 286.18 576.645 289.565 576.736 289.657C576.828 289.749 579.86 289.764 583.475 289.693L590.047 289.562L586.79 282.296C585 278.299 583.478 274.973 583.409 274.904C583.34 274.835 581.773 278.088 579.927 282.134ZM424.547 282.185C422.82 286.002 421.407 289.275 421.407 289.46C421.407 289.645 424.36 289.797 427.97 289.797C431.579 289.797 434.532 289.673 434.532 289.522C434.532 288.919 428.259 275.247 427.982 275.247C427.819 275.247 426.273 278.369 424.547 282.185ZM386.72 289.043C386.72 293.802 386.849 294.909 387.429 295.132C387.819 295.282 390.097 295.348 392.49 295.281C395.805 295.186 397.217 294.938 398.412 294.237C400.719 292.885 401.836 291.143 401.806 288.948C401.746 284.649 399.281 283.226 391.895 283.226H386.72V289.043Z" fill="white"/>
</svg>
