<svg width="850" height="850" viewBox="0 0 850 850" fill="none" xmlns="http://www.w3.org/2000/svg">
<path d="M439.655 19.2349C439.655 22.0214 438.672 24.3968 436.707 26.362C434.742 28.327 432.366 29.3103 429.58 29.3103H420.42C417.635 29.3103 415.259 28.327 413.293 26.362C411.328 24.3968 410.345 22.0214 410.345 19.2349V10.0754C410.345 7.28978 411.328 4.91388 413.293 2.94862C415.259 0.983069 417.635 0 420.42 0H429.58C432.367 0 434.742 0.982776 436.707 2.94833C438.672 4.91417 439.655 7.28978 439.655 10.0754V19.2349Z" fill="white"/>
<path d="M556.897 10.0754V0H537.662C534.876 0 532.5 0.982776 530.535 2.94833C528.569 4.91388 527.586 7.28948 527.586 10.0754V29.3103H556.897V10.0754Z" fill="white"/>
<path d="M586.207 10.0754C586.207 7.28948 585.224 4.91359 583.259 2.94833C581.293 0.983069 578.917 0 576.131 0H556.897V29.3103H586.207V10.0754Z" fill="white"/>
<path d="M263.793 39.3857V29.3103H244.558C241.772 29.3103 239.396 30.2931 237.431 32.2586C235.466 34.2242 234.483 36.5998 234.483 39.3857V48.5452C234.483 51.3312 235.466 53.7071 237.431 55.6723C239.397 57.6376 241.772 58.6206 244.558 58.6206H263.793V39.3857Z" fill="white"/>
<path d="M293.103 29.3103H263.793V58.6206H293.103V29.3103Z" fill="white"/>
<path d="M322.414 29.3103H293.104V58.6206H322.414V29.3103Z" fill="white"/>
<path d="M351.724 29.3103H322.414V58.6206H351.724V29.3103Z" fill="white"/>
<path d="M381.034 29.3103H351.724V58.6206H381.034V29.3103Z" fill="white"/>
<path d="M400.269 29.3103H381.034V58.6206H400.269C403.055 58.6206 405.431 57.6376 407.397 55.6723C409.362 53.7071 410.345 51.3312 410.345 48.5452V39.3857C410.345 36.5998 409.362 34.2239 407.397 32.2586C405.431 30.2934 403.055 29.3103 400.269 29.3103Z" fill="white"/>
<path d="M527.586 39.3857V29.3103H508.351C505.565 29.3103 503.189 30.2931 501.224 32.2586C499.259 34.2242 498.276 36.5998 498.276 39.3857V48.5452C498.276 51.3312 499.259 53.7071 501.224 55.6723C503.19 57.6376 505.565 58.6206 508.351 58.6206H527.586V39.3857Z" fill="white"/>
<path d="M556.897 29.3103H527.586V58.6206H556.897V29.3103Z" fill="white"/>
<path d="M586.207 29.3103H556.897V58.6206H586.207V29.3103Z" fill="white"/>
<path d="M293.046 68.009H293.103V58.6206H263.793V68.009H263.85C263.812 68.3144 263.793 68.5433 263.793 68.696V77.8555C263.793 80.6415 264.776 83.0174 266.741 84.9826C268.707 86.9479 271.083 87.931 273.869 87.931H283.028C285.814 87.931 288.19 86.9479 290.155 84.9826C292.12 83.0174 293.103 80.6415 293.103 77.8555V68.696C293.103 68.5433 293.085 68.3144 293.046 68.009Z" fill="white"/>
<path d="M351.667 68.009H351.724V58.6206H322.414V68.009H322.471C322.433 68.3144 322.414 68.5433 322.414 68.696V77.8555C322.414 80.6415 323.397 83.0174 325.362 84.9826C327.328 86.9479 329.703 87.931 332.489 87.931H341.649C344.435 87.931 346.811 86.9479 348.776 84.9826C350.741 83.0174 351.724 80.6415 351.724 77.8555V68.696C351.724 68.5433 351.706 68.3144 351.667 68.009Z" fill="white"/>
<path d="M468.965 77.8555C468.965 80.6421 467.982 83.0174 466.017 84.9826C464.052 86.9476 461.677 87.931 458.89 87.931H449.731C446.945 87.931 444.569 86.9476 442.604 84.9826C440.638 83.0174 439.655 80.6421 439.655 77.8555V68.696C439.655 65.9104 440.638 63.5345 442.603 61.5692C444.569 59.6037 446.945 58.6206 449.731 58.6206H458.89C461.677 58.6206 464.052 59.6034 466.017 61.5689C467.982 63.5348 468.965 65.9104 468.965 68.696V77.8555Z" fill="white"/>
<path d="M586.15 68.009H586.207V58.6206H556.897V68.009H556.954C556.916 68.3144 556.897 68.5433 556.897 68.696V77.8555C556.897 80.6415 557.879 83.0174 559.845 84.9826C561.81 86.9479 564.186 87.931 566.972 87.931H576.131C578.917 87.931 581.293 86.9479 583.259 84.9826C585.224 83.0174 586.207 80.6415 586.207 77.8555V68.696C586.207 68.5433 586.188 68.3144 586.15 68.009Z" fill="white"/>
<path d="M322.414 107.166C322.414 109.953 321.43 112.328 319.466 114.293C317.5 116.258 315.125 117.241 312.338 117.241H303.179C300.393 117.241 298.017 116.258 296.052 114.293C294.087 112.328 293.104 109.953 293.104 107.166V98.0066C293.104 95.2209 294.086 92.845 296.052 90.8798C298.018 88.9142 300.393 87.9312 303.179 87.9312H312.338C315.125 87.9312 317.501 88.9139 319.466 90.8795C321.431 92.8453 322.414 95.2209 322.414 98.0066V107.166Z" fill="white"/>
<path d="M381.034 98.0066V87.9312H361.8C359.014 87.9312 356.638 88.9139 354.672 90.8795C352.707 92.845 351.724 95.2206 351.724 98.0066V107.166C351.724 109.952 352.707 112.328 354.672 114.293C356.638 116.258 359.014 117.241 361.8 117.241H381.034V98.0066Z" fill="white"/>
<path d="M410.345 98.0066C410.345 95.2206 409.362 92.8447 407.397 90.8795C405.431 88.9142 403.055 87.9312 400.269 87.9312H381.034V117.241H410.345V98.0066Z" fill="white"/>
<path d="M498.276 98.0066C498.276 95.2206 497.293 92.8447 495.328 90.8795C493.362 88.9142 490.986 87.9312 488.2 87.9312H479.041C476.255 87.9312 473.879 88.9139 471.914 90.8795C469.949 92.845 468.966 95.2206 468.966 98.0066V107.166C468.966 107.319 468.985 107.548 469.023 107.853H468.966V117.241H498.276V107.853H498.219C498.257 107.548 498.276 107.319 498.276 107.166V98.0066Z" fill="white"/>
<path d="M556.897 107.166C556.897 109.953 555.913 112.328 553.948 114.293C551.983 116.258 549.608 117.241 546.821 117.241H537.662C534.876 117.241 532.5 116.258 530.535 114.293C528.569 112.328 527.586 109.953 527.586 107.166V98.0066C527.586 95.2209 528.569 92.845 530.535 90.8798C532.5 88.9142 534.876 87.9312 537.662 87.9312H546.821C549.608 87.9312 551.984 88.9139 553.948 90.8795C555.913 92.8453 556.897 95.2209 556.897 98.0066V107.166Z" fill="white"/>
<path d="M263.793 127.317V117.241H244.558C241.772 117.241 239.396 118.224 237.431 120.19C235.466 122.155 234.483 124.531 234.483 127.317V136.476C234.483 139.262 235.466 141.638 237.431 143.603C239.397 145.569 241.772 146.552 244.558 146.552H263.793V127.317Z" fill="white"/>
<path d="M283.028 117.241H263.793V146.552H283.028C285.814 146.552 288.19 145.569 290.155 143.603C292.12 141.638 293.103 139.262 293.103 136.476V127.317C293.103 124.531 292.12 122.155 290.155 120.19C288.19 118.225 285.814 117.241 283.028 117.241Z" fill="white"/>
<path d="M410.288 126.63H410.345V117.241H381.034V126.63H381.092C381.054 126.935 381.034 127.164 381.034 127.317V136.476C381.034 139.262 382.017 141.638 383.983 143.603C385.948 145.569 388.324 146.552 391.11 146.552H400.269C403.055 146.552 405.431 145.569 407.397 143.603C409.362 141.638 410.345 139.262 410.345 136.476V127.317C410.345 127.164 410.326 126.935 410.288 126.63Z" fill="white"/>
<path d="M498.276 117.241H468.966V146.552H498.276V117.241Z" fill="white"/>
<path d="M586.207 127.317C586.207 124.531 585.224 122.155 583.259 120.19C581.293 118.225 578.917 117.241 576.131 117.241H566.972C564.186 117.241 561.81 118.224 559.845 120.19C557.88 122.155 556.897 124.531 556.897 127.317V136.476C556.897 136.629 556.916 136.858 556.954 137.163H556.897V146.552H586.207V137.163H586.15C586.188 136.858 586.207 136.629 586.207 136.476V127.317Z" fill="white"/>
<path d="M322.414 156.627V146.552H303.179C300.393 146.552 298.017 147.535 296.052 149.5C294.087 151.466 293.104 153.841 293.104 156.627V175.862H322.414V156.627Z" fill="white"/>
<path d="M341.649 146.552H322.414V175.862H341.649C344.435 175.862 346.811 174.879 348.776 172.914C350.741 170.949 351.724 168.573 351.724 165.787V156.627C351.724 153.841 350.741 151.465 348.776 149.5C346.811 147.535 344.435 146.552 341.649 146.552Z" fill="white"/>
<path d="M439.655 156.627V146.552H420.42C417.634 146.552 415.258 147.535 413.293 149.5C411.328 151.466 410.345 153.841 410.345 156.627V175.862H439.655V156.627Z" fill="white"/>
<path d="M468.965 146.552H439.655V175.862H468.965V146.552Z" fill="white"/>
<path d="M498.276 146.552H468.966V175.862H498.276V146.552Z" fill="white"/>
<path d="M527.586 146.552H498.276V175.862H527.586V146.552Z" fill="white"/>
<path d="M556.897 146.552H527.586V175.862H556.897V146.552Z" fill="white"/>
<path d="M586.207 146.552H556.897V175.862H576.131C578.917 175.862 581.293 174.879 583.259 172.914C585.224 170.949 586.207 168.573 586.207 165.787V146.552Z" fill="white"/>
<path d="M263.793 195.097C263.793 197.884 262.81 200.259 260.845 202.224C258.88 204.189 256.504 205.172 253.718 205.172H244.558C241.773 205.172 239.397 204.189 237.431 202.224C235.466 200.259 234.483 197.884 234.483 195.097V185.937C234.483 183.152 235.466 180.776 237.431 178.811C239.397 176.845 241.773 175.862 244.558 175.862H253.718C256.505 175.862 258.88 176.845 260.845 178.81C262.81 180.776 263.793 183.152 263.793 185.937V195.097Z" fill="white"/>
<path d="M322.357 185.25H322.414V175.862H293.104V185.25H293.161C293.123 185.556 293.104 185.785 293.104 185.937V195.097C293.104 197.883 294.086 200.259 296.052 202.224C298.017 204.189 300.393 205.172 303.179 205.172H312.338C315.124 205.172 317.5 204.189 319.466 202.224C321.431 200.259 322.414 197.883 322.414 195.097V185.937C322.414 185.785 322.395 185.556 322.357 185.25Z" fill="white"/>
<path d="M381.034 185.937C381.034 183.152 380.051 180.776 378.086 178.81C376.121 176.845 373.745 175.862 370.959 175.862H361.8C359.014 175.862 356.638 176.845 354.672 178.81C352.707 180.776 351.724 183.152 351.724 185.937V195.097C351.724 195.25 351.743 195.479 351.781 195.784H351.724V205.172H381.034V195.784H380.977C381.016 195.479 381.034 195.25 381.034 195.097V185.937Z" fill="white"/>
<path d="M439.598 185.25H439.655V175.862H410.345V185.25H410.402C410.364 185.556 410.345 185.785 410.345 185.937V195.097C410.345 197.883 411.328 200.259 413.293 202.224C415.259 204.189 417.634 205.172 420.42 205.172H429.58C432.366 205.172 434.742 204.189 436.707 202.224C438.672 200.259 439.655 197.883 439.655 195.097V185.937C439.655 185.785 439.637 185.556 439.598 185.25Z" fill="white"/>
<path d="M498.219 185.25H498.276V175.862H468.966V185.25H469.023C468.985 185.556 468.966 185.785 468.966 185.937V195.097C468.966 197.883 469.948 200.259 471.914 202.224C473.879 204.189 476.255 205.172 479.041 205.172H488.2C490.986 205.172 493.362 204.189 495.328 202.224C497.293 200.259 498.276 197.883 498.276 195.097V185.937C498.276 185.785 498.257 185.556 498.219 185.25Z" fill="white"/>
<path d="M556.839 185.25H556.897V175.862H527.586V185.25H527.643C527.605 185.556 527.586 185.785 527.586 185.937V195.097C527.586 197.883 528.569 200.259 530.535 202.224C532.5 204.189 534.876 205.172 537.662 205.172H546.821C549.607 205.172 551.983 204.189 553.948 202.224C555.913 200.259 556.897 197.883 556.897 195.097V185.937C556.897 185.785 556.878 185.556 556.839 185.25Z" fill="white"/>
<path d="M615.517 185.937C615.517 183.152 614.534 180.776 612.569 178.81C610.604 176.845 608.228 175.862 605.442 175.862H596.282C593.496 175.862 591.12 176.845 589.155 178.81C587.19 180.776 586.207 183.152 586.207 185.937V195.097C586.207 195.25 586.226 195.479 586.264 195.784H586.207V205.172H615.517V195.784H615.46C615.499 195.479 615.517 195.25 615.517 195.097V185.937Z" fill="white"/>
<path d="M351.724 215.248V205.172H332.489C329.703 205.172 327.327 206.155 325.362 208.121C323.397 210.086 322.414 212.462 322.414 215.248V234.483H351.724V215.248Z" fill="white"/>
<path d="M381.034 205.172H351.724V234.483H381.034V205.172Z" fill="white"/>
<path d="M468.965 224.407C468.965 227.194 467.982 229.569 466.017 231.534C464.052 233.499 461.677 234.483 458.89 234.483H449.731C446.945 234.483 444.569 233.499 442.604 231.534C440.638 229.569 439.655 227.194 439.655 224.407V215.248C439.655 212.462 440.638 210.086 442.603 208.121C444.569 206.155 446.945 205.172 449.731 205.172H458.89C461.677 205.172 464.052 206.155 466.017 208.121C467.982 210.087 468.965 212.462 468.965 215.248V224.407Z" fill="white"/>
<path d="M527.586 215.248C527.586 212.462 526.603 210.086 524.638 208.121C522.673 206.155 520.297 205.172 517.511 205.172H508.351C505.565 205.172 503.189 206.155 501.224 208.121C499.259 210.086 498.276 212.462 498.276 215.248V224.407C498.276 224.56 498.295 224.789 498.333 225.094H498.276V234.483H527.586V225.094H527.529C527.568 224.789 527.586 224.56 527.586 224.407V215.248Z" fill="white"/>
<path d="M615.517 205.172H586.207V234.483H615.517V205.172Z" fill="white"/>
<path d="M29.3103 244.558C29.3103 241.772 28.3273 239.396 26.362 237.431C24.3968 235.466 22.0209 234.483 19.2349 234.483H10.0754C7.28948 234.483 4.91359 235.465 2.94833 237.431C0.983069 239.397 0 241.772 0 244.558V253.718C0 253.87 0.0190517 254.099 0.0571552 254.405H0V263.793H29.3103V254.405H29.2532C29.2919 254.099 29.3103 253.871 29.3103 253.718V244.558Z" fill="white"/>
<path d="M87.9311 253.718C87.9311 256.504 86.9477 258.879 84.9827 260.845C83.0175 262.81 80.6422 263.793 77.8556 263.793H68.6962C65.9105 263.793 63.5346 262.81 61.5693 260.845C59.6038 258.879 58.6207 256.504 58.6207 253.718V244.558C58.6207 241.772 59.6035 239.397 61.5691 237.431C63.5349 235.466 65.9105 234.483 68.6962 234.483H77.8556C80.6425 234.483 83.0181 235.465 84.9827 237.431C86.948 239.397 87.9311 241.772 87.9311 244.558V253.718Z" fill="white"/>
<path d="M146.552 244.558C146.552 241.772 145.569 239.396 143.603 237.431C141.638 235.466 139.262 234.483 136.476 234.483H127.317C124.531 234.483 122.155 235.465 120.19 237.431C118.224 239.397 117.241 241.772 117.241 244.558V253.718C117.241 253.87 117.26 254.099 117.298 254.405H117.241V263.793H146.552V254.405H146.495C146.533 254.099 146.552 253.871 146.552 253.718V244.558Z" fill="white"/>
<path d="M205.172 253.718C205.172 256.504 204.189 258.879 202.224 260.845C200.259 262.81 197.884 263.793 195.097 263.793H185.937C183.152 263.793 180.776 262.81 178.811 260.845C176.845 258.879 175.862 256.504 175.862 253.718V244.558C175.862 241.772 176.845 239.397 178.81 237.431C180.776 235.466 183.152 234.483 185.937 234.483H195.097C197.884 234.483 200.259 235.465 202.224 237.431C204.189 239.397 205.172 241.772 205.172 244.558V253.718Z" fill="white"/>
<path d="M293.103 244.558V234.483H273.869C271.083 234.483 268.707 235.465 266.741 237.431C264.776 239.397 263.793 241.772 263.793 244.558V263.793H293.103V244.558Z" fill="white"/>
<path d="M322.414 234.483H293.104V263.793H322.414V234.483Z" fill="white"/>
<path d="M351.724 234.483H322.414V263.793H351.724V234.483Z" fill="white"/>
<path d="M381.034 234.483H351.724V263.793H381.034V234.483Z" fill="white"/>
<path d="M498.276 244.558V234.483H479.041C476.255 234.483 473.879 235.465 471.914 237.431C469.949 239.397 468.966 241.772 468.966 244.558V263.793H498.276V244.558Z" fill="white"/>
<path d="M527.586 234.483H498.276V263.793H517.511C520.297 263.793 522.673 262.81 524.638 260.845C526.603 258.879 527.586 256.504 527.586 253.718V234.483Z" fill="white"/>
<path d="M586.207 244.558V234.483H566.972C564.186 234.483 561.81 235.465 559.845 237.431C557.88 239.397 556.897 241.772 556.897 244.558V253.718C556.897 256.504 557.879 258.879 559.845 260.845C561.81 262.81 564.186 263.793 566.972 263.793H586.207V244.558Z" fill="white"/>
<path d="M615.517 234.483H586.207V263.793H605.442C608.228 263.793 610.604 262.81 612.569 260.845C614.534 258.879 615.517 256.504 615.517 253.718V234.483Z" fill="white"/>
<path d="M732.759 253.718C732.759 256.504 731.775 258.879 729.81 260.845C727.845 262.81 725.47 263.793 722.683 263.793H713.524C710.738 263.793 708.362 262.81 706.397 260.845C704.431 258.879 703.448 256.504 703.448 253.718V244.558C703.448 241.772 704.431 239.397 706.397 237.431C708.362 235.466 710.738 234.483 713.524 234.483H722.683C725.47 234.483 727.846 235.465 729.81 237.431C731.776 239.397 732.759 241.772 732.759 244.558V253.718Z" fill="white"/>
<path d="M820.69 253.718C820.69 256.504 819.706 258.879 817.741 260.845C815.776 262.81 813.401 263.793 810.614 263.793H801.455C798.669 263.793 796.293 262.81 794.328 260.845C792.362 258.879 791.379 256.504 791.379 253.718V244.558C791.379 241.772 792.362 239.397 794.328 237.431C796.294 235.466 798.669 234.483 801.455 234.483H810.614C813.401 234.483 815.777 235.465 817.741 237.431C819.707 239.397 820.69 241.772 820.69 244.558V253.718Z" fill="white"/>
<path d="M29.3103 263.793H0V293.103H29.3103V263.793Z" fill="white"/>
<path d="M58.6206 273.868C58.6206 271.082 57.6376 268.707 55.6723 266.741C53.7071 264.776 51.3312 263.793 48.5452 263.793H29.3103V293.103H58.6206V273.868Z" fill="white"/>
<path d="M117.241 273.868V263.793H98.0065C95.2205 263.793 92.8446 264.776 90.8794 266.741C88.9141 268.707 87.931 271.082 87.931 273.868V293.103H117.241V273.868Z" fill="white"/>
<path d="M146.552 263.793H117.241V293.103H146.552V263.793Z" fill="white"/>
<path d="M175.862 273.868C175.862 271.082 174.879 268.707 172.914 266.741C170.949 264.776 168.573 263.793 165.787 263.793H146.552V293.103H175.862V273.868Z" fill="white"/>
<path d="M293.103 263.793H263.793V293.103H293.103V263.793Z" fill="white"/>
<path d="M351.724 263.793H322.414V293.103H351.724V263.793Z" fill="white"/>
<path d="M381.034 263.793H351.724V293.103H381.034V263.793Z" fill="white"/>
<path d="M400.269 263.793H381.034V293.103H400.269C403.055 293.103 405.431 292.12 407.397 290.155C409.362 288.19 410.345 285.814 410.345 283.028V273.868C410.345 271.082 409.362 268.707 407.397 266.741C405.431 264.776 403.055 263.793 400.269 263.793Z" fill="white"/>
<path d="M468.965 273.868V263.793H449.731C446.945 263.793 444.569 264.776 442.603 266.741C440.638 268.707 439.655 271.082 439.655 273.868V293.103H468.965V273.868Z" fill="white"/>
<path d="M498.276 263.793H468.966V293.103H498.276V263.793Z" fill="white"/>
<path d="M644.828 273.868V263.793H625.593C622.807 263.793 620.431 264.776 618.466 266.741C616.5 268.707 615.517 271.082 615.517 273.868V293.103H644.828V273.868Z" fill="white"/>
<path d="M664.062 263.793H644.828V293.103H664.062C666.848 293.103 669.224 292.12 671.19 290.155C673.155 288.19 674.138 285.814 674.138 283.028V273.868C674.138 271.082 673.155 268.707 671.19 266.741C669.224 264.776 666.848 263.793 664.062 263.793Z" fill="white"/>
<path d="M762.069 283.028C762.069 285.814 761.086 288.19 759.121 290.155C757.155 292.12 754.78 293.103 751.994 293.103H742.834C740.048 293.103 737.672 292.12 735.707 290.155C733.742 288.19 732.759 285.814 732.759 283.028V273.868C732.759 271.083 733.741 268.707 735.707 266.742C737.673 264.776 740.048 263.793 742.834 263.793H751.994C754.78 263.793 757.156 264.776 759.121 266.741C761.086 268.707 762.069 271.083 762.069 273.868V283.028Z" fill="white"/>
<path d="M850 273.868C850 271.082 849.017 268.707 847.052 266.741C845.086 264.776 842.71 263.793 839.925 263.793H830.765C827.979 263.793 825.603 264.776 823.638 266.741C821.673 268.707 820.69 271.082 820.69 273.868V283.028C820.69 283.181 820.709 283.41 820.747 283.715H820.69V293.103H850V283.715H849.943C849.982 283.41 850 283.181 850 283.028V273.868Z" fill="white"/>
<path d="M29.3103 293.104H0V312.338C0 315.124 0.982776 317.5 2.94833 319.466C4.91388 321.431 7.28948 322.414 10.0754 322.414H29.3103V293.104Z" fill="white"/>
<path d="M58.6206 293.104H29.3103V322.414H58.6206V293.104Z" fill="white"/>
<path d="M87.9311 293.104H58.6207V322.414H87.9311V293.104Z" fill="white"/>
<path d="M117.241 293.104H87.931V322.414H107.166C109.952 322.414 112.328 321.431 114.293 319.466C116.258 317.5 117.241 315.124 117.241 312.338V293.104Z" fill="white"/>
<path d="M175.862 293.104H146.552V312.338C146.552 315.124 147.535 317.5 149.5 319.466C151.466 321.431 153.841 322.414 156.627 322.414H175.862V293.104Z" fill="white"/>
<path d="M195.097 293.104H175.862V322.414H195.097C197.883 322.414 200.259 321.431 202.224 319.466C204.189 317.5 205.172 315.124 205.172 312.338V303.179C205.172 300.393 204.189 298.017 202.224 296.052C200.259 294.087 197.883 293.104 195.097 293.104Z" fill="white"/>
<path d="M263.793 303.179V293.104H244.558C241.772 293.104 239.396 294.086 237.431 296.052C235.466 298.017 234.483 300.393 234.483 303.179V312.338C234.483 315.124 235.466 317.5 237.431 319.466C239.397 321.431 241.772 322.414 244.558 322.414H263.793V303.179Z" fill="white"/>
<path d="M293.103 293.104H263.793V322.414H293.103V293.104Z" fill="white"/>
<path d="M322.414 293.104H293.104V322.414H322.414V293.104Z" fill="white"/>
<path d="M351.724 293.104H322.414V322.414H351.724V293.104Z" fill="white"/>
<path d="M381.034 293.104H351.724V322.414H381.034V293.104Z" fill="white"/>
<path d="M439.655 303.179V293.104H420.42C417.634 293.104 415.258 294.086 413.293 296.052C411.328 298.017 410.345 300.393 410.345 303.179V322.414H439.655V303.179Z" fill="white"/>
<path d="M468.965 293.104H439.655V322.414H468.965V293.104Z" fill="white"/>
<path d="M498.276 293.104H468.966V322.414H498.276V293.104Z" fill="white"/>
<path d="M615.517 303.179V293.104H596.282C593.496 293.104 591.12 294.086 589.155 296.052C587.19 298.017 586.207 300.393 586.207 303.179V322.414H615.517V303.179Z" fill="white"/>
<path d="M644.828 293.104H615.517V322.414H634.752C637.538 322.414 639.914 321.431 641.879 319.466C643.844 317.5 644.828 315.124 644.828 312.338V293.104Z" fill="white"/>
<path d="M703.448 303.179V293.104H684.213C681.427 293.104 679.052 294.086 677.086 296.052C675.121 298.017 674.138 300.393 674.138 303.179V322.414H703.448V303.179Z" fill="white"/>
<path d="M722.683 293.104H703.448V322.414H722.683C725.469 322.414 727.845 321.431 729.81 319.466C731.776 317.5 732.759 315.124 732.759 312.338V303.179C732.759 300.393 731.776 298.017 729.81 296.052C727.845 294.087 725.469 293.104 722.683 293.104Z" fill="white"/>
<path d="M791.379 303.179V293.104H772.144C769.358 293.104 766.983 294.086 765.017 296.052C763.052 298.017 762.069 300.393 762.069 303.179V312.338C762.069 315.124 763.052 317.5 765.017 319.466C766.983 321.431 769.358 322.414 772.144 322.414H791.379V303.179Z" fill="white"/>
<path d="M820.69 293.104H791.379V322.414H820.69V293.104Z" fill="white"/>
<path d="M850 293.104H820.69V322.414H839.925C842.71 322.414 845.086 321.431 847.052 319.466C849.017 317.5 850 315.124 850 312.338V293.104Z" fill="white"/>
<path d="M87.9311 322.414H58.6207V351.724H87.9311V322.414Z" fill="white"/>
<path d="M293.103 322.414H263.793V341.649C263.793 344.435 264.776 346.811 266.741 348.776C268.707 350.741 271.083 351.724 273.869 351.724H293.103V322.414Z" fill="white"/>
<path d="M322.414 322.414H293.104V351.724H312.338C315.124 351.724 317.5 350.741 319.466 348.776C321.431 346.811 322.414 344.435 322.414 341.649V322.414Z" fill="white"/>
<path d="M381.034 322.414H351.724V341.649C351.724 344.435 352.707 346.811 354.672 348.776C356.638 350.741 359.014 351.724 361.8 351.724H381.034V322.414Z" fill="white"/>
<path d="M410.345 322.414H381.034V351.724H410.345V322.414Z" fill="white"/>
<path d="M439.655 322.414H410.345V351.724H439.655V322.414Z" fill="white"/>
<path d="M498.276 322.414H468.966V351.724H498.276V322.414Z" fill="white"/>
<path d="M527.586 332.489C527.586 329.703 526.603 327.327 524.638 325.362C522.673 323.397 520.297 322.414 517.511 322.414H498.276V351.724H527.586V332.489Z" fill="white"/>
<path d="M586.207 332.489V322.414H566.972C564.186 322.414 561.81 323.397 559.845 325.362C557.88 327.328 556.897 329.703 556.897 332.489V341.649C556.897 344.435 557.879 346.811 559.845 348.776C561.81 350.741 564.186 351.724 566.972 351.724H586.207V332.489Z" fill="white"/>
<path d="M615.517 322.414H586.207V351.724H615.517V322.414Z" fill="white"/>
<path d="M703.391 331.802H703.448V322.414H674.138V331.802H674.195C674.157 332.108 674.138 332.337 674.138 332.489V341.649C674.138 344.435 675.121 346.811 677.086 348.776C679.052 350.741 681.427 351.724 684.213 351.724H693.373C696.159 351.724 698.535 350.741 700.5 348.776C702.465 346.811 703.448 344.435 703.448 341.649V332.489C703.448 332.337 703.43 332.108 703.391 331.802Z" fill="white"/>
<path d="M820.69 322.414H791.379V351.724H820.69V322.414Z" fill="white"/>
<path d="M87.9311 351.724H58.6207V381.034H87.9311V351.724Z" fill="white"/>
<path d="M107.166 351.724H87.931V381.034H107.166C109.952 381.034 112.328 380.051 114.293 378.086C116.258 376.121 117.241 373.745 117.241 370.959V361.8C117.241 359.014 116.258 356.638 114.293 354.672C112.328 352.707 109.952 351.724 107.166 351.724Z" fill="white"/>
<path d="M175.862 361.8V351.724H156.627C153.841 351.724 151.465 352.707 149.5 354.672C147.535 356.638 146.552 359.014 146.552 361.8V370.959C146.552 373.745 147.535 376.121 149.5 378.086C151.466 380.051 153.841 381.034 156.627 381.034H175.862V361.8Z" fill="white"/>
<path d="M205.172 351.724H175.862V381.034H205.172V351.724Z" fill="white"/>
<path d="M234.483 351.724H205.172V381.034H234.483V351.724Z" fill="white"/>
<path d="M253.718 351.724H234.483V381.034H253.718C256.504 381.034 258.88 380.051 260.845 378.086C262.81 376.121 263.793 373.745 263.793 370.959V361.8C263.793 359.014 262.81 356.638 260.845 354.672C258.88 352.707 256.504 351.724 253.718 351.724Z" fill="white"/>
<path d="M439.655 351.724H410.345V381.034H439.655V351.724Z" fill="white"/>
<path d="M468.965 351.724H439.655V381.034H468.965V351.724Z" fill="white"/>
<path d="M498.276 351.724H468.966V381.034H498.276V351.724Z" fill="white"/>
<path d="M527.586 351.724H498.276V381.034H517.511C520.297 381.034 522.673 380.051 524.638 378.086C526.603 376.121 527.586 373.745 527.586 370.959V351.724Z" fill="white"/>
<path d="M615.517 351.724H586.207V381.034H615.517V351.724Z" fill="white"/>
<path d="M644.828 351.724H615.517V381.034H644.828V351.724Z" fill="white"/>
<path d="M674.138 361.8C674.138 359.014 673.155 356.638 671.19 354.672C669.224 352.707 666.848 351.724 664.062 351.724H644.828V381.034H674.138V361.8Z" fill="white"/>
<path d="M762.069 361.8C762.069 359.014 761.086 356.638 759.121 354.672C757.155 352.707 754.779 351.724 751.994 351.724H742.834C740.048 351.724 737.672 352.707 735.707 354.672C733.742 356.638 732.759 359.014 732.759 361.8V370.959C732.759 371.112 732.778 371.341 732.816 371.646H732.759V381.034H762.069V371.646H762.012C762.05 371.341 762.069 371.112 762.069 370.959V361.8Z" fill="white"/>
<path d="M820.69 351.724H791.379V370.959C791.379 373.745 792.362 376.121 794.328 378.086C796.293 380.051 798.669 381.034 801.455 381.034H820.69V351.724Z" fill="white"/>
<path d="M850 361.8C850 359.014 849.017 356.638 847.052 354.672C845.086 352.707 842.71 351.724 839.925 351.724H820.69V381.034H850V361.8Z" fill="white"/>
<path d="M58.6206 391.11V381.034H39.3857C36.5998 381.034 34.2239 382.017 32.2586 383.983C30.2934 385.948 29.3103 388.324 29.3103 391.11V410.345H58.6206V391.11Z" fill="white"/>
<path d="M87.9311 381.034H58.6207V410.345H87.9311V381.034Z" fill="white"/>
<path d="M234.426 390.423H234.483V381.034H205.172V390.423H205.23C205.191 390.728 205.172 390.957 205.172 391.11V400.269C205.172 403.055 206.155 405.431 208.121 407.396C210.086 409.362 212.462 410.345 215.248 410.345H224.407C227.193 410.345 229.569 409.362 231.534 407.396C233.5 405.431 234.483 403.055 234.483 400.269V391.11C234.483 390.957 234.464 390.728 234.426 390.423Z" fill="white"/>
<path d="M293.103 391.11V381.034H273.869C271.083 381.034 268.707 382.017 266.741 383.983C264.776 385.948 263.793 388.324 263.793 391.11V400.269C263.793 403.055 264.776 405.431 266.741 407.396C268.707 409.362 271.083 410.345 273.869 410.345H293.103V391.11Z" fill="white"/>
<path d="M312.338 381.034H293.104V410.345H312.338C315.124 410.345 317.5 409.362 319.466 407.396C321.431 405.431 322.414 403.055 322.414 400.269V391.11C322.414 388.324 321.431 385.948 319.466 383.983C317.5 382.017 315.124 381.034 312.338 381.034Z" fill="white"/>
<path d="M381.034 391.11C381.034 388.324 380.051 385.948 378.086 383.983C376.121 382.017 373.745 381.034 370.959 381.034H361.8C359.014 381.034 356.638 382.017 354.672 383.983C352.707 385.948 351.724 388.324 351.724 391.11V400.269C351.724 400.422 351.743 400.651 351.781 400.956H351.724V410.345H381.034V400.956H380.977C381.016 400.651 381.034 400.422 381.034 400.269V391.11Z" fill="white"/>
<path d="M439.655 381.034H410.345V400.269C410.345 403.055 411.328 405.431 413.293 407.396C415.259 409.362 417.634 410.345 420.42 410.345H439.655V381.034Z" fill="white"/>
<path d="M468.965 381.034H439.655V410.345H458.89C461.676 410.345 464.052 409.362 466.017 407.396C467.982 405.431 468.965 403.055 468.965 400.269V381.034Z" fill="white"/>
<path d="M615.517 381.034H586.207V410.345H615.517V381.034Z" fill="white"/>
<path d="M644.828 381.034H615.517V410.345H644.828V381.034Z" fill="white"/>
<path d="M674.138 381.034H644.828V410.345H664.062C666.848 410.345 669.224 409.362 671.19 407.396C673.155 405.431 674.138 403.055 674.138 400.269V381.034Z" fill="white"/>
<path d="M762.069 381.034H732.759V410.345H762.069V381.034Z" fill="white"/>
<path d="M850 381.034H820.69V410.345H850V381.034Z" fill="white"/>
<path d="M58.6206 410.345H29.3103V429.58C29.3103 432.366 30.2931 434.741 32.2586 436.707C34.2242 438.672 36.5998 439.655 39.3857 439.655H58.6206V410.345Z" fill="white"/>
<path d="M87.9311 410.345H58.6207V439.655H87.9311V410.345Z" fill="white"/>
<path d="M117.241 420.42C117.241 417.634 116.258 415.258 114.293 413.293C112.328 411.328 109.952 410.345 107.166 410.345H87.931V439.655H117.241V420.42Z" fill="white"/>
<path d="M175.862 420.42V410.345H156.627C153.841 410.345 151.465 411.328 149.5 413.293C147.535 415.259 146.552 417.634 146.552 420.42V439.655H175.862V420.42Z" fill="white"/>
<path d="M195.097 410.345H175.862V439.655H195.097C197.883 439.655 200.259 438.672 202.224 436.707C204.189 434.741 205.172 432.366 205.172 429.58V420.42C205.172 417.634 204.189 415.258 202.224 413.293C200.259 411.328 197.883 410.345 195.097 410.345Z" fill="white"/>
<path d="M263.793 429.58C263.793 432.366 262.81 434.741 260.845 436.707C258.88 438.672 256.504 439.655 253.718 439.655H244.558C241.773 439.655 239.397 438.672 237.431 436.707C235.466 434.741 234.483 432.366 234.483 429.58V420.42C234.483 417.635 235.466 415.259 237.431 413.293C239.397 411.328 241.773 410.345 244.558 410.345H253.718C256.505 410.345 258.88 411.328 260.845 413.293C262.81 415.259 263.793 417.635 263.793 420.42V429.58Z" fill="white"/>
<path d="M351.724 420.42V410.345H332.489C329.703 410.345 327.327 411.328 325.362 413.293C323.397 415.259 322.414 417.634 322.414 420.42V439.655H351.724V420.42Z" fill="white"/>
<path d="M381.034 410.345H351.724V439.655H381.034V410.345Z" fill="white"/>
<path d="M400.269 410.345H381.034V439.655H400.269C403.055 439.655 405.431 438.672 407.397 436.707C409.362 434.741 410.345 432.366 410.345 429.58V420.42C410.345 417.634 409.362 415.258 407.397 413.293C405.431 411.328 403.055 410.345 400.269 410.345Z" fill="white"/>
<path d="M556.897 420.42C556.897 417.634 555.913 415.258 553.948 413.293C551.983 411.328 549.607 410.345 546.821 410.345H537.662C534.876 410.345 532.5 411.328 530.535 413.293C528.569 415.259 527.586 417.634 527.586 420.42V429.58C527.586 429.732 527.605 429.962 527.643 430.267H527.586V439.655H556.897V430.267H556.839C556.878 429.962 556.897 429.733 556.897 429.58V420.42Z" fill="white"/>
<path d="M615.517 410.345H586.207V429.58C586.207 432.366 587.19 434.741 589.155 436.707C591.121 438.672 593.496 439.655 596.282 439.655H615.517V410.345Z" fill="white"/>
<path d="M644.828 410.345H615.517V439.655H644.828V410.345Z" fill="white"/>
<path d="M703.448 420.42V410.345H684.213C681.427 410.345 679.052 411.328 677.086 413.293C675.121 415.259 674.138 417.634 674.138 420.42V429.58C674.138 432.366 675.121 434.741 677.086 436.707C679.052 438.672 681.427 439.655 684.213 439.655H703.448V420.42Z" fill="white"/>
<path d="M732.759 410.345H703.448V439.655H732.759V410.345Z" fill="white"/>
<path d="M762.069 410.345H732.759V439.655H762.069V410.345Z" fill="white"/>
<path d="M820.69 420.42V410.345H801.455C798.669 410.345 796.293 411.328 794.328 413.293C792.362 415.259 791.379 417.634 791.379 420.42V439.655H820.69V420.42Z" fill="white"/>
<path d="M850 410.345H820.69V439.655H839.925C842.71 439.655 845.086 438.672 847.052 436.707C849.017 434.741 850 432.366 850 429.58V410.345Z" fill="white"/>
<path d="M117.184 449.044H117.241V439.655H87.931V449.044H87.9882C87.9501 449.349 87.931 449.578 87.931 449.731V458.89C87.931 461.676 88.9138 464.052 90.8794 466.017C92.8449 467.983 95.2205 468.966 98.0065 468.966H107.166C109.952 468.966 112.328 467.983 114.293 466.017C116.258 464.052 117.241 461.676 117.241 458.89V449.731C117.241 449.578 117.223 449.349 117.184 449.044Z" fill="white"/>
<path d="M175.805 449.044H175.862V439.655H146.552V449.044H146.609C146.571 449.349 146.552 449.578 146.552 449.731V458.89C146.552 461.676 147.535 464.052 149.5 466.017C151.466 467.983 153.841 468.966 156.627 468.966H165.787C168.573 468.966 170.949 467.983 172.914 466.017C174.879 464.052 175.862 461.676 175.862 458.89V449.731C175.862 449.578 175.844 449.349 175.805 449.044Z" fill="white"/>
<path d="M293.103 449.731V439.655H273.869C271.083 439.655 268.707 440.638 266.741 442.604C264.776 444.569 263.793 446.945 263.793 449.731V468.966H293.103V449.731Z" fill="white"/>
<path d="M322.414 439.655H293.104V468.966H322.414V439.655Z" fill="white"/>
<path d="M351.724 439.655H322.414V468.966H341.649C344.435 468.966 346.811 467.983 348.776 466.017C350.741 464.052 351.724 461.676 351.724 458.89V439.655Z" fill="white"/>
<path d="M498.276 449.731V439.655H479.041C476.255 439.655 473.879 440.638 471.914 442.604C469.949 444.569 468.966 446.945 468.966 449.731V468.966H498.276V449.731Z" fill="white"/>
<path d="M527.586 439.655H498.276V468.966H527.586V439.655Z" fill="white"/>
<path d="M556.897 439.655H527.586V468.966H546.821C549.607 468.966 551.983 467.983 553.948 466.017C555.913 464.052 556.897 461.676 556.897 458.89V439.655Z" fill="white"/>
<path d="M644.828 439.655H615.517V468.966H644.828V439.655Z" fill="white"/>
<path d="M762.069 439.655H732.759V468.966H762.069V439.655Z" fill="white"/>
<path d="M820.69 439.655H791.379V468.966H820.69V439.655Z" fill="white"/>
<path d="M58.6206 479.041C58.6206 476.255 57.6376 473.879 55.6723 471.914C53.7071 469.949 51.3312 468.966 48.5452 468.966H39.3857C36.5998 468.966 34.2239 469.948 32.2586 471.914C30.2934 473.879 29.3103 476.255 29.3103 479.041V488.2C29.3103 488.353 29.3294 488.582 29.3675 488.888H29.3103V498.276H58.6206V488.888H58.5635C58.6022 488.582 58.6206 488.353 58.6206 488.2V479.041Z" fill="white"/>
<path d="M205.172 488.2C205.172 490.987 204.189 493.362 202.224 495.328C200.259 497.293 197.884 498.276 195.097 498.276H185.937C183.152 498.276 180.776 497.293 178.811 495.328C176.845 493.362 175.862 490.987 175.862 488.2V479.041C175.862 476.255 176.845 473.879 178.81 471.914C180.776 469.949 183.152 468.966 185.937 468.966H195.097C197.884 468.966 200.259 469.948 202.224 471.914C204.189 473.88 205.172 476.255 205.172 479.041V488.2Z" fill="white"/>
<path d="M263.793 479.041V468.966H244.558C241.772 468.966 239.396 469.948 237.431 471.914C235.466 473.879 234.483 476.255 234.483 479.041V488.2C234.483 490.986 235.466 493.362 237.431 495.328C239.397 497.293 241.772 498.276 244.558 498.276H263.793V479.041Z" fill="white"/>
<path d="M293.103 468.966H263.793V498.276H293.103V468.966Z" fill="white"/>
<path d="M322.414 468.966H293.104V498.276H312.338C315.124 498.276 317.5 497.293 319.466 495.328C321.431 493.362 322.414 490.986 322.414 488.2V468.966Z" fill="white"/>
<path d="M468.965 479.041V468.966H449.731C446.945 468.966 444.569 469.948 442.603 471.914C440.638 473.879 439.655 476.255 439.655 479.041V488.2C439.655 490.986 440.638 493.362 442.603 495.328C444.569 497.293 446.945 498.276 449.731 498.276H468.965V479.041Z" fill="white"/>
<path d="M498.276 468.966H468.966V498.276H498.276V468.966Z" fill="white"/>
<path d="M527.586 468.966H498.276V498.276H527.586V468.966Z" fill="white"/>
<path d="M644.828 468.966H615.517V498.276H644.828V468.966Z" fill="white"/>
<path d="M674.138 479.041C674.138 476.255 673.155 473.879 671.19 471.914C669.224 469.949 666.848 468.966 664.062 468.966H644.828V498.276H674.138V479.041Z" fill="white"/>
<path d="M762.069 468.966H732.759V498.276H762.069V468.966Z" fill="white"/>
<path d="M820.69 468.966H791.379V488.2C791.379 490.986 792.362 493.362 794.328 495.328C796.293 497.293 798.669 498.276 801.455 498.276H820.69V468.966Z" fill="white"/>
<path d="M850 479.041C850 476.255 849.017 473.879 847.052 471.914C845.086 469.949 842.71 468.966 839.925 468.966H820.69V498.276H850V479.041Z" fill="white"/>
<path d="M58.6206 498.276H29.3103V517.511C29.3103 520.297 30.2931 522.673 32.2586 524.638C34.2242 526.603 36.5998 527.586 39.3857 527.586H58.6206V498.276Z" fill="white"/>
<path d="M77.8556 498.276H58.6207V527.586H77.8556C80.6416 527.586 83.0175 526.603 84.9827 524.638C86.948 522.673 87.9311 520.297 87.9311 517.511V508.351C87.9311 505.565 86.948 503.189 84.9827 501.224C83.0175 499.259 80.6416 498.276 77.8556 498.276Z" fill="white"/>
<path d="M234.483 508.351C234.483 505.565 233.5 503.189 231.534 501.224C229.569 499.259 227.193 498.276 224.407 498.276H215.248C212.462 498.276 210.086 499.259 208.121 501.224C206.155 503.19 205.172 505.565 205.172 508.351V517.511C205.172 517.664 205.191 517.893 205.23 518.198H205.172V527.586H234.483V518.198H234.426C234.464 517.893 234.483 517.664 234.483 517.511V508.351Z" fill="white"/>
<path d="M293.103 498.276H263.793V527.586H293.103V498.276Z" fill="white"/>
<path d="M410.345 517.511C410.345 520.297 409.361 522.673 407.397 524.638C405.431 526.603 403.056 527.586 400.269 527.586H391.11C388.324 527.586 385.948 526.603 383.983 524.638C382.018 522.673 381.034 520.297 381.034 517.511V508.351C381.034 505.566 382.017 503.19 383.983 501.224C385.949 499.259 388.324 498.276 391.11 498.276H400.269C403.056 498.276 405.432 499.259 407.397 501.224C409.362 503.19 410.345 505.566 410.345 508.351V517.511Z" fill="white"/>
<path d="M527.586 498.276H498.276V527.586H527.586V498.276Z" fill="white"/>
<path d="M615.517 508.351V498.276H596.282C593.496 498.276 591.12 499.259 589.155 501.224C587.19 503.19 586.207 505.565 586.207 508.351V517.511C586.207 520.297 587.19 522.673 589.155 524.638C591.121 526.603 593.496 527.586 596.282 527.586H615.517V508.351Z" fill="white"/>
<path d="M644.828 498.276H615.517V527.586H644.828V498.276Z" fill="white"/>
<path d="M674.138 498.276H644.828V527.586H674.138V498.276Z" fill="white"/>
<path d="M762.069 498.276H732.759V517.511C732.759 520.297 733.741 522.673 735.707 524.638C737.672 526.603 740.048 527.586 742.834 527.586H762.069V498.276Z" fill="white"/>
<path d="M781.304 498.276H762.069V527.586H781.304C784.09 527.586 786.466 526.603 788.431 524.638C790.396 522.673 791.379 520.297 791.379 517.511V508.351C791.379 505.565 790.396 503.189 788.431 501.224C786.466 499.259 784.09 498.276 781.304 498.276Z" fill="white"/>
<path d="M850 498.276H820.69V527.586H850V498.276Z" fill="white"/>
<path d="M29.3103 546.821C29.3103 549.608 28.327 551.983 26.362 553.948C24.3968 555.913 22.0214 556.897 19.2349 556.897H10.0754C7.28978 556.897 4.91388 555.913 2.94862 553.948C0.983069 551.983 0 549.608 0 546.821V537.662C0 534.876 0.982776 532.5 2.94833 530.535C4.91417 528.569 7.28978 527.586 10.0754 527.586H19.2349C22.0217 527.586 24.3973 528.569 26.362 530.535C28.3273 532.5 29.3103 534.876 29.3103 537.662V546.821Z" fill="white"/>
<path d="M205.172 537.662V527.586H185.937C183.152 527.586 180.776 528.569 178.81 530.535C176.845 532.5 175.862 534.876 175.862 537.662V546.821C175.862 549.607 176.845 551.983 178.81 553.948C180.776 555.913 183.152 556.897 185.937 556.897H205.172V537.662Z" fill="white"/>
<path d="M234.483 527.586H205.172V556.897H234.483V527.586Z" fill="white"/>
<path d="M263.793 527.586H234.483V556.897H263.793V527.586Z" fill="white"/>
<path d="M293.103 527.586H263.793V556.897H293.103V527.586Z" fill="white"/>
<path d="M312.338 527.586H293.104V556.897H312.338C315.124 556.897 317.5 555.913 319.466 553.948C321.431 551.983 322.414 549.607 322.414 546.821V537.662C322.414 534.876 321.431 532.5 319.466 530.535C317.5 528.569 315.124 527.586 312.338 527.586Z" fill="white"/>
<path d="M439.655 537.662C439.655 534.876 438.672 532.5 436.707 530.535C434.742 528.569 432.366 527.586 429.58 527.586H420.42C417.634 527.586 415.258 528.569 413.293 530.535C411.328 532.5 410.345 534.876 410.345 537.662V546.821C410.345 546.974 410.364 547.203 410.402 547.508H410.345V556.897H439.655V547.508H439.598C439.637 547.203 439.655 546.974 439.655 546.821V537.662Z" fill="white"/>
<path d="M498.276 537.662V527.586H479.041C476.255 527.586 473.879 528.569 471.914 530.535C469.949 532.5 468.966 534.876 468.966 537.662V546.821C468.966 549.607 469.948 551.983 471.914 553.948C473.879 555.913 476.255 556.897 479.041 556.897H498.276V537.662Z" fill="white"/>
<path d="M527.586 527.586H498.276V556.897H527.586V527.586Z" fill="white"/>
<path d="M674.081 536.975H674.138V527.586H644.828V536.975H644.885C644.847 537.28 644.828 537.509 644.828 537.662V546.821C644.828 549.607 645.81 551.983 647.776 553.948C649.741 555.913 652.117 556.897 654.903 556.897H664.062C666.848 556.897 669.224 555.913 671.19 553.948C673.155 551.983 674.138 549.607 674.138 546.821V537.662C674.138 537.509 674.119 537.28 674.081 536.975Z" fill="white"/>
<path d="M732.759 546.821C732.759 549.608 731.775 551.983 729.81 553.948C727.845 555.913 725.47 556.897 722.683 556.897H713.524C710.738 556.897 708.362 555.913 706.397 553.948C704.431 551.983 703.448 549.608 703.448 546.821V537.662C703.448 534.876 704.431 532.5 706.397 530.535C708.362 528.569 710.738 527.586 713.524 527.586H722.683C725.47 527.586 727.846 528.569 729.81 530.535C731.776 532.5 732.759 534.876 732.759 537.662V546.821Z" fill="white"/>
<path d="M820.69 537.662V527.586H801.455C798.669 527.586 796.293 528.569 794.328 530.535C792.362 532.5 791.379 534.876 791.379 537.662V556.897H820.69V537.662Z" fill="white"/>
<path d="M850 527.586H820.69V556.897H839.925C842.71 556.897 845.086 555.913 847.052 553.948C849.017 551.983 850 549.607 850 546.821V527.586Z" fill="white"/>
<path d="M58.6206 566.972V556.896H39.3857C36.5998 556.896 34.2239 557.879 32.2586 559.845C30.2934 561.81 29.3103 564.186 29.3103 566.972V576.131C29.3103 578.917 30.2931 581.293 32.2586 583.259C34.2242 585.224 36.5998 586.207 39.3857 586.207H58.6206V566.972Z" fill="white"/>
<path d="M87.9311 556.896H58.6207V586.207H87.9311V556.896Z" fill="white"/>
<path d="M117.241 566.972C117.241 564.186 116.258 561.81 114.293 559.845C112.328 557.88 109.952 556.896 107.166 556.896H87.931V586.207H117.241V566.972Z" fill="white"/>
<path d="M175.862 576.131C175.862 578.918 174.879 581.293 172.914 583.259C170.949 585.223 168.573 586.207 165.787 586.207H156.627C153.842 586.207 151.466 585.223 149.5 583.259C147.535 581.293 146.552 578.918 146.552 576.131V566.972C146.552 564.186 147.535 561.81 149.5 559.845C151.466 557.88 153.842 556.896 156.627 556.896H165.787C168.573 556.896 170.949 557.879 172.914 559.845C174.879 561.811 175.862 564.186 175.862 566.972V576.131Z" fill="white"/>
<path d="M234.483 556.896H205.172V586.207H234.483V556.896Z" fill="white"/>
<path d="M263.793 556.896H234.483V586.207H253.718C256.504 586.207 258.88 585.224 260.845 583.259C262.81 581.293 263.793 578.917 263.793 576.131V556.896Z" fill="white"/>
<path d="M410.345 566.972V556.896H391.11C388.324 556.896 385.948 557.879 383.983 559.845C382.018 561.81 381.034 564.186 381.034 566.972V576.131C381.034 578.917 382.017 581.293 383.983 583.259C385.948 585.224 388.324 586.207 391.11 586.207H410.345V566.972Z" fill="white"/>
<path d="M439.655 556.896H410.345V586.207H439.655V556.896Z" fill="white"/>
<path d="M458.89 556.896H439.655V586.207H458.89C461.676 586.207 464.052 585.224 466.017 583.259C467.982 581.293 468.965 578.917 468.965 576.131V566.972C468.965 564.186 467.982 561.81 466.017 559.845C464.052 557.88 461.676 556.896 458.89 556.896Z" fill="white"/>
<path d="M527.586 556.896H498.276V586.207H527.586V556.896Z" fill="white"/>
<path d="M586.207 576.131C586.207 578.918 585.224 581.293 583.259 583.259C581.293 585.223 578.918 586.207 576.131 586.207H566.972C564.186 586.207 561.81 585.223 559.845 583.259C557.88 581.293 556.897 578.918 556.897 576.131V566.972C556.897 564.186 557.879 561.81 559.845 559.845C561.811 557.88 564.186 556.896 566.972 556.896H576.131C578.918 556.896 581.294 557.879 583.259 559.845C585.224 561.811 586.207 564.186 586.207 566.972V576.131Z" fill="white"/>
<path d="M762.069 576.131C762.069 578.918 761.086 581.293 759.121 583.259C757.155 585.223 754.78 586.207 751.994 586.207H742.834C740.048 586.207 737.672 585.223 735.707 583.259C733.742 581.293 732.759 578.918 732.759 576.131V566.972C732.759 564.186 733.741 561.81 735.707 559.845C737.673 557.88 740.048 556.896 742.834 556.896H751.994C754.78 556.896 757.156 557.879 759.121 559.845C761.086 561.811 762.069 564.186 762.069 566.972V576.131Z" fill="white"/>
<path d="M820.633 566.285H820.69V556.896H791.379V566.285H791.436C791.398 566.59 791.379 566.819 791.379 566.972V576.131C791.379 578.917 792.362 581.293 794.328 583.259C796.293 585.224 798.669 586.207 801.455 586.207H810.614C813.4 586.207 815.776 585.224 817.741 583.259C819.707 581.293 820.69 578.917 820.69 576.131V566.972C820.69 566.819 820.671 566.59 820.633 566.285Z" fill="white"/>
<path d="M29.3103 605.442C29.3103 608.228 28.327 610.604 26.362 612.569C24.3968 614.534 22.0214 615.517 19.2349 615.517H10.0754C7.28978 615.517 4.91388 614.534 2.94862 612.569C0.983069 610.604 0 608.228 0 605.442V596.282C0 593.497 0.982776 591.121 2.94833 589.156C4.91417 587.19 7.28978 586.207 10.0754 586.207H19.2349C22.0217 586.207 24.3973 587.19 26.362 589.155C28.3273 591.121 29.3103 593.497 29.3103 596.282V605.442Z" fill="white"/>
<path d="M87.9311 586.207H58.6207V605.442C58.6207 608.228 59.6035 610.604 61.5691 612.569C63.5346 614.534 65.9102 615.517 68.6962 615.517H87.9311V586.207Z" fill="white"/>
<path d="M117.241 586.207H87.931V615.517H117.241V586.207Z" fill="white"/>
<path d="M136.476 586.207H117.241V615.517H136.476C139.262 615.517 141.638 614.534 143.603 612.569C145.569 610.604 146.552 608.228 146.552 605.442V596.282C146.552 593.497 145.569 591.121 143.603 589.155C141.638 587.19 139.262 586.207 136.476 586.207Z" fill="white"/>
<path d="M205.172 596.282V586.207H185.937C183.152 586.207 180.776 587.19 178.81 589.155C176.845 591.121 175.862 593.497 175.862 596.282V605.442C175.862 608.228 176.845 610.604 178.81 612.569C180.776 614.534 183.152 615.517 185.937 615.517H205.172V596.282Z" fill="white"/>
<path d="M234.483 586.207H205.172V615.517H224.407C227.193 615.517 229.569 614.534 231.534 612.569C233.5 610.604 234.483 608.228 234.483 605.442V586.207Z" fill="white"/>
<path d="M293.103 596.282V586.207H273.869C271.083 586.207 268.707 587.19 266.741 589.155C264.776 591.121 263.793 593.497 263.793 596.282V605.442C263.793 608.228 264.776 610.604 266.741 612.569C268.707 614.534 271.083 615.517 273.869 615.517H293.103V596.282Z" fill="white"/>
<path d="M322.414 596.282C322.414 593.497 321.431 591.121 319.466 589.155C317.5 587.19 315.124 586.207 312.338 586.207H293.104V615.517H322.414V596.282Z" fill="white"/>
<path d="M439.655 586.207H410.345V615.517H439.655V586.207Z" fill="white"/>
<path d="M527.529 595.595H527.586V586.207H498.276V595.595H498.333C498.295 595.901 498.276 596.13 498.276 596.282V605.442C498.276 608.228 499.259 610.604 501.224 612.569C503.19 614.534 505.565 615.517 508.351 615.517H517.511C520.297 615.517 522.673 614.534 524.638 612.569C526.603 610.604 527.586 608.228 527.586 605.442V596.282C527.586 596.13 527.568 595.901 527.529 595.595Z" fill="white"/>
<path d="M615.517 596.282V586.207H596.282C593.496 586.207 591.12 587.19 589.155 589.155C587.19 591.121 586.207 593.497 586.207 596.282V615.517H615.517V596.282Z" fill="white"/>
<path d="M644.828 586.207H615.517V615.517H644.828V586.207Z" fill="white"/>
<path d="M674.138 586.207H644.828V615.517H674.138V586.207Z" fill="white"/>
<path d="M703.448 586.207H674.138V615.517H703.448V586.207Z" fill="white"/>
<path d="M732.759 596.282C732.759 593.497 731.776 591.121 729.81 589.155C727.845 587.19 725.469 586.207 722.683 586.207H703.448V615.517H732.759V596.282Z" fill="white"/>
<path d="M263.793 634.752C263.793 637.539 262.81 639.914 260.845 641.879C258.88 643.844 256.504 644.827 253.718 644.827H244.558C241.773 644.827 239.397 643.844 237.431 641.879C235.466 639.914 234.483 637.539 234.483 634.752V625.593C234.483 622.807 235.466 620.431 237.431 618.466C239.397 616.5 241.773 615.517 244.558 615.517H253.718C256.505 615.517 258.88 616.5 260.845 618.465C262.81 620.431 263.793 622.807 263.793 625.593V634.752Z" fill="white"/>
<path d="M322.414 615.517H293.104V644.827H322.414V615.517Z" fill="white"/>
<path d="M351.724 615.517H322.414V644.827H351.724V615.517Z" fill="white"/>
<path d="M381.034 625.593C381.034 622.807 380.051 620.431 378.086 618.465C376.121 616.5 373.745 615.517 370.959 615.517H351.724V644.827H381.034V625.593Z" fill="white"/>
<path d="M439.598 624.905H439.655V615.517H410.345V624.905H410.402C410.364 625.211 410.345 625.44 410.345 625.593V634.752C410.345 637.538 411.328 639.914 413.293 641.879C415.259 643.844 417.634 644.827 420.42 644.827H429.58C432.366 644.827 434.742 643.844 436.707 641.879C438.672 639.914 439.655 637.538 439.655 634.752V625.593C439.655 625.44 439.637 625.211 439.598 624.905Z" fill="white"/>
<path d="M498.276 625.593C498.276 622.807 497.293 620.431 495.328 618.465C493.362 616.5 490.986 615.517 488.2 615.517H479.041C476.255 615.517 473.879 616.5 471.914 618.465C469.949 620.431 468.966 622.807 468.966 625.593V634.752C468.966 634.905 468.985 635.134 469.023 635.439H468.966V644.827H498.276V635.439H498.219C498.257 635.134 498.276 634.905 498.276 634.752V625.593Z" fill="white"/>
<path d="M556.897 625.593V615.517H537.662C534.876 615.517 532.5 616.5 530.535 618.465C528.569 620.431 527.586 622.807 527.586 625.593V644.827H556.897V625.593Z" fill="white"/>
<path d="M586.207 615.517H556.897V644.827H586.207V615.517Z" fill="white"/>
<path d="M615.517 615.517H586.207V644.827H615.517V615.517Z" fill="white"/>
<path d="M732.759 615.517H703.448V644.827H732.759V615.517Z" fill="white"/>
<path d="M791.379 625.593V615.517H772.144C769.358 615.517 766.983 616.5 765.017 618.465C763.052 620.431 762.069 622.807 762.069 625.593V634.752C762.069 637.538 763.052 639.914 765.017 641.879C766.983 643.844 769.358 644.827 772.144 644.827H791.379V625.593Z" fill="white"/>
<path d="M820.69 615.517H791.379V644.827H820.69V615.517Z" fill="white"/>
<path d="M850 625.593C850 622.807 849.017 620.431 847.052 618.465C845.086 616.5 842.71 615.517 839.925 615.517H820.69V644.827H850V625.593Z" fill="white"/>
<path d="M293.103 654.903V644.828H273.869C271.083 644.828 268.707 645.81 266.741 647.776C264.776 649.742 263.793 652.117 263.793 654.903V674.138H293.103V654.903Z" fill="white"/>
<path d="M322.414 644.828H293.104V674.138H322.414V644.828Z" fill="white"/>
<path d="M351.724 644.828H322.414V674.138H351.724V644.828Z" fill="white"/>
<path d="M381.034 644.828H351.724V674.138H381.034V644.828Z" fill="white"/>
<path d="M400.269 644.828H381.034V674.138H400.269C403.055 674.138 405.431 673.155 407.397 671.19C409.362 669.224 410.345 666.848 410.345 664.063V654.903C410.345 652.117 409.362 649.741 407.397 647.776C405.431 645.811 403.055 644.828 400.269 644.828Z" fill="white"/>
<path d="M498.219 654.216H498.276V644.828H468.966V654.216H469.023C468.985 654.521 468.966 654.75 468.966 654.903V664.063C468.966 666.848 469.948 669.224 471.914 671.19C473.879 673.155 476.255 674.138 479.041 674.138H488.2C490.986 674.138 493.362 673.155 495.328 671.19C497.293 669.224 498.276 666.848 498.276 664.063V654.903C498.276 654.75 498.257 654.521 498.219 654.216Z" fill="white"/>
<path d="M556.897 644.828H527.586V674.138H556.897V644.828Z" fill="white"/>
<path d="M586.207 644.828H556.897V674.138H586.207V644.828Z" fill="white"/>
<path d="M615.517 644.828H586.207V674.138H615.517V644.828Z" fill="white"/>
<path d="M674.138 664.063C674.138 666.849 673.155 669.224 671.19 671.19C669.224 673.155 666.849 674.138 664.062 674.138H654.903C652.117 674.138 649.741 673.155 647.776 671.19C645.811 669.224 644.828 666.849 644.828 664.063V654.903C644.828 652.117 645.81 649.742 647.776 647.776C649.742 645.811 652.117 644.828 654.903 644.828H664.062C666.849 644.828 669.225 645.81 671.19 647.776C673.155 649.742 674.138 652.117 674.138 654.903V664.063Z" fill="white"/>
<path d="M732.759 644.828H703.448V674.138H732.759V644.828Z" fill="white"/>
<path d="M762.069 654.903C762.069 652.117 761.086 649.741 759.121 647.776C757.155 645.811 754.779 644.828 751.994 644.828H732.759V674.138H762.069V654.903Z" fill="white"/>
<path d="M820.69 644.828H791.379V664.063C791.379 666.848 792.362 669.224 794.328 671.19C796.293 673.155 798.669 674.138 801.455 674.138H820.69V644.828Z" fill="white"/>
<path d="M850 644.828H820.69V674.138H839.925C842.71 674.138 845.086 673.155 847.052 671.19C849.017 669.224 850 666.848 850 664.063V644.828Z" fill="white"/>
<path d="M293.103 674.138H263.793V703.448H293.103V674.138Z" fill="white"/>
<path d="M322.414 674.138H293.104V703.448H322.414V674.138Z" fill="white"/>
<path d="M351.724 674.138H322.414V703.448H351.724V674.138Z" fill="white"/>
<path d="M381.034 674.138H351.724V703.448H370.959C373.745 703.448 376.121 702.465 378.086 700.5C380.051 698.535 381.034 696.159 381.034 693.373V674.138Z" fill="white"/>
<path d="M468.965 693.373C468.965 696.159 467.982 698.535 466.017 700.5C464.052 702.465 461.677 703.448 458.89 703.448H449.731C446.945 703.448 444.569 702.465 442.604 700.5C440.638 698.535 439.655 696.159 439.655 693.373V684.213C439.655 681.428 440.638 679.052 442.603 677.087C444.569 675.121 446.945 674.138 449.731 674.138H458.89C461.677 674.138 464.052 675.121 466.017 677.086C467.982 679.052 468.965 681.428 468.965 684.213V693.373Z" fill="white"/>
<path d="M527.586 684.213V674.138H508.351C505.565 674.138 503.189 675.121 501.224 677.086C499.259 679.052 498.276 681.427 498.276 684.213V703.448H527.586V684.213Z" fill="white"/>
<path d="M556.897 674.138H527.586V703.448H556.897V674.138Z" fill="white"/>
<path d="M615.517 674.138H586.207V703.448H615.517V674.138Z" fill="white"/>
<path d="M732.759 674.138H703.448V703.448H732.759V674.138Z" fill="white"/>
<path d="M762.069 674.138H732.759V703.448H751.994C754.779 703.448 757.155 702.465 759.121 700.5C761.086 698.535 762.069 696.159 762.069 693.373V674.138Z" fill="white"/>
<path d="M263.793 713.524V703.448H244.558C241.772 703.448 239.396 704.431 237.431 706.397C235.466 708.362 234.483 710.738 234.483 713.524V722.683C234.483 725.469 235.466 727.845 237.431 729.81C239.397 731.776 241.772 732.759 244.558 732.759H263.793V713.524Z" fill="white"/>
<path d="M293.103 703.448H263.793V732.759H293.103V703.448Z" fill="white"/>
<path d="M527.586 703.448H498.276V722.683C498.276 725.469 499.259 727.845 501.224 729.81C503.19 731.776 505.565 732.759 508.351 732.759H527.586V703.448Z" fill="white"/>
<path d="M556.897 703.448H527.586V732.759H546.821C549.607 732.759 551.983 731.776 553.948 729.81C555.913 727.845 556.897 725.469 556.897 722.683V703.448Z" fill="white"/>
<path d="M615.517 703.448H586.207V732.759H615.517V703.448Z" fill="white"/>
<path d="M644.828 703.448H615.517V732.759H644.828V703.448Z" fill="white"/>
<path d="M674.138 703.448H644.828V732.759H674.138V703.448Z" fill="white"/>
<path d="M703.448 703.448H674.138V732.759H703.448V703.448Z" fill="white"/>
<path d="M732.759 703.448H703.448V732.759H732.759V703.448Z" fill="white"/>
<path d="M850 713.524C850 710.738 849.017 708.362 847.052 706.397C845.086 704.431 842.71 703.448 839.925 703.448H830.765C827.979 703.448 825.603 704.431 823.638 706.397C821.673 708.362 820.69 710.738 820.69 713.524V722.683C820.69 722.836 820.709 723.065 820.747 723.37H820.69V732.759H850V723.37H849.943C849.982 723.065 850 722.836 850 722.683V713.524Z" fill="white"/>
<path d="M293.103 732.759H263.793V762.069H293.103V732.759Z" fill="white"/>
<path d="M498.276 751.993C498.276 754.78 497.292 757.155 495.328 759.121C493.362 761.086 490.987 762.069 488.2 762.069H479.041C476.255 762.069 473.879 761.086 471.914 759.121C469.949 757.155 468.966 754.78 468.966 751.993V742.834C468.966 740.048 469.948 737.672 471.914 735.707C473.88 733.742 476.255 732.759 479.041 732.759H488.2C490.987 732.759 493.363 733.741 495.328 735.707C497.293 737.673 498.276 740.048 498.276 742.834V751.993Z" fill="white"/>
<path d="M615.517 732.759H586.207V762.069H615.517V732.759Z" fill="white"/>
<path d="M644.828 732.759H615.517V762.069H634.752C637.538 762.069 639.914 761.086 641.879 759.121C643.844 757.155 644.828 754.779 644.828 751.993V732.759Z" fill="white"/>
<path d="M732.759 732.759H703.448V762.069H732.759V732.759Z" fill="white"/>
<path d="M791.379 742.834V732.759H772.144C769.358 732.759 766.983 733.741 765.017 735.707C763.052 737.672 762.069 740.048 762.069 742.834V751.993C762.069 754.779 763.052 757.155 765.017 759.121C766.983 761.086 769.358 762.069 772.144 762.069H791.379V742.834Z" fill="white"/>
<path d="M820.69 732.759H791.379V762.069H820.69V732.759Z" fill="white"/>
<path d="M850 732.759H820.69V762.069H850V732.759Z" fill="white"/>
<path d="M263.793 772.144V762.069H244.558C241.772 762.069 239.396 763.052 237.431 765.017C235.466 766.983 234.483 769.358 234.483 772.144V781.304C234.483 784.09 235.466 786.466 237.431 788.431C239.397 790.396 241.772 791.379 244.558 791.379H263.793V772.144Z" fill="white"/>
<path d="M293.103 762.069H263.793V791.379H293.103V762.069Z" fill="white"/>
<path d="M322.414 762.069H293.104V791.379H322.414V762.069Z" fill="white"/>
<path d="M351.724 762.069H322.414V791.379H351.724V762.069Z" fill="white"/>
<path d="M370.959 762.069H351.724V791.379H370.959C373.745 791.379 376.121 790.396 378.086 788.431C380.051 786.466 381.034 784.09 381.034 781.304V772.144C381.034 769.358 380.051 766.982 378.086 765.017C376.121 763.052 373.745 762.069 370.959 762.069Z" fill="white"/>
<path d="M527.586 772.144C527.586 769.358 526.603 766.982 524.638 765.017C522.673 763.052 520.297 762.069 517.511 762.069H508.351C505.565 762.069 503.189 763.052 501.224 765.017C499.259 766.983 498.276 769.358 498.276 772.144V781.304C498.276 781.456 498.295 781.686 498.333 781.991H498.276V791.379H527.586V781.991H527.529C527.568 781.686 527.586 781.457 527.586 781.304V772.144Z" fill="white"/>
<path d="M615.517 762.069H586.207V791.379H615.517V762.069Z" fill="white"/>
<path d="M703.448 772.144V762.069H684.213C681.427 762.069 679.052 763.052 677.086 765.017C675.121 766.983 674.138 769.358 674.138 772.144V781.304C674.138 784.09 675.121 786.466 677.086 788.431C679.052 790.396 681.427 791.379 684.213 791.379H703.448V772.144Z" fill="white"/>
<path d="M732.759 762.069H703.448V791.379H732.759V762.069Z" fill="white"/>
<path d="M751.994 762.069H732.759V791.379H751.994C754.779 791.379 757.155 790.396 759.121 788.431C761.086 786.466 762.069 784.09 762.069 781.304V772.144C762.069 769.358 761.086 766.982 759.121 765.017C757.155 763.052 754.779 762.069 751.994 762.069Z" fill="white"/>
<path d="M849.943 771.457H850V762.069H820.69V771.457H820.747C820.709 771.763 820.69 771.992 820.69 772.144V781.304C820.69 784.09 821.672 786.466 823.638 788.431C825.604 790.396 827.979 791.379 830.765 791.379H839.925C842.71 791.379 845.086 790.396 847.052 788.431C849.017 786.466 850 784.09 850 781.304V772.144C850 771.992 849.982 771.763 849.943 771.457Z" fill="white"/>
<path d="M351.724 791.379H322.414V820.69H351.724V791.379Z" fill="white"/>
<path d="M468.965 810.614C468.965 813.401 467.982 815.776 466.017 817.741C464.052 819.706 461.677 820.69 458.89 820.69H449.731C446.945 820.69 444.569 819.706 442.604 817.741C440.638 815.776 439.655 813.401 439.655 810.614V801.455C439.655 798.669 440.638 796.293 442.603 794.328C444.569 792.362 446.945 791.379 449.731 791.379H458.89C461.677 791.379 464.052 792.362 466.017 794.328C467.982 796.294 468.965 798.669 468.965 801.455V810.614Z" fill="white"/>
<path d="M527.586 791.379H498.276V820.69H527.586V791.379Z" fill="white"/>
<path d="M586.207 801.455V791.379H566.972C564.186 791.379 561.81 792.362 559.845 794.328C557.88 796.293 556.897 798.669 556.897 801.455V820.69H586.207V801.455Z" fill="white"/>
<path d="M615.517 791.379H586.207V820.69H615.517V791.379Z" fill="white"/>
<path d="M674.138 801.455C674.138 798.669 673.155 796.293 671.19 794.328C669.224 792.362 666.848 791.379 664.062 791.379H654.903C652.117 791.379 649.741 792.362 647.776 794.328C645.811 796.293 644.828 798.669 644.828 801.455V810.614C644.828 810.767 644.847 810.996 644.885 811.301H644.828V820.69H674.138V811.301H674.081C674.119 810.996 674.138 810.767 674.138 810.614V801.455Z" fill="white"/>
<path d="M820.69 801.455C820.69 798.669 819.707 796.293 817.741 794.328C815.776 792.362 813.4 791.379 810.614 791.379H801.455C798.669 791.379 796.293 792.362 794.328 794.328C792.362 796.293 791.379 798.669 791.379 801.455V810.614C791.379 810.767 791.398 810.996 791.436 811.301H791.379V820.69H820.69V811.301H820.633C820.671 810.996 820.69 810.767 820.69 810.614V801.455Z" fill="white"/>
<path d="M263.793 839.925C263.793 842.711 262.81 845.086 260.845 847.052C258.88 849.017 256.504 850 253.718 850H244.558C241.773 850 239.397 849.017 237.431 847.052C235.466 845.086 234.483 842.711 234.483 839.925V830.765C234.483 827.979 235.466 825.604 237.431 823.638C239.397 821.673 241.773 820.69 244.558 820.69H253.718C256.505 820.69 258.88 821.672 260.845 823.638C262.81 825.604 263.793 827.979 263.793 830.765V839.925Z" fill="white"/>
<path d="M322.414 830.765V820.69H303.179C300.393 820.69 298.017 821.672 296.052 823.638C294.087 825.604 293.104 827.979 293.104 830.765V839.925C293.104 842.711 294.086 845.086 296.052 847.052C298.017 849.017 300.393 850 303.179 850H322.414V830.765Z" fill="white"/>
<path d="M351.724 820.69H322.414V850H341.649C344.435 850 346.811 849.017 348.776 847.052C350.741 845.086 351.724 842.711 351.724 839.925V820.69Z" fill="white"/>
<path d="M410.345 839.925C410.345 842.711 409.361 845.086 407.397 847.052C405.431 849.017 403.056 850 400.269 850H391.11C388.324 850 385.948 849.017 383.983 847.052C382.018 845.086 381.034 842.711 381.034 839.925V830.765C381.034 827.979 382.017 825.604 383.983 823.638C385.949 821.673 388.324 820.69 391.11 820.69H400.269C403.056 820.69 405.432 821.672 407.397 823.638C409.362 825.604 410.345 827.979 410.345 830.765V839.925Z" fill="white"/>
<path d="M498.276 830.765V820.69H479.041C476.255 820.69 473.879 821.672 471.914 823.638C469.949 825.604 468.966 827.979 468.966 830.765V839.925C468.966 842.711 469.948 845.086 471.914 847.052C473.879 849.017 476.255 850 479.041 850H498.276V830.765Z" fill="white"/>
<path d="M527.586 820.69H498.276V850H517.511C520.297 850 522.673 849.017 524.638 847.052C526.603 845.086 527.586 842.711 527.586 839.925V820.69Z" fill="white"/>
<path d="M586.207 820.69H556.897V839.925C556.897 842.711 557.879 845.086 559.845 847.052C561.81 849.017 564.186 850 566.972 850H586.207V820.69Z" fill="white"/>
<path d="M615.517 820.69H586.207V850H615.517V820.69Z" fill="white"/>
<path d="M644.828 820.69H615.517V850H644.828V820.69Z" fill="white"/>
<path d="M674.138 820.69H644.828V850H664.062C666.848 850 669.224 849.017 671.19 847.052C673.155 845.086 674.138 842.711 674.138 839.925V820.69Z" fill="white"/>
<path d="M732.759 839.925C732.759 842.711 731.775 845.086 729.81 847.052C727.845 849.017 725.47 850 722.683 850H713.524C710.738 850 708.362 849.017 706.397 847.052C704.431 845.086 703.448 842.711 703.448 839.925V830.765C703.448 827.979 704.431 825.604 706.397 823.638C708.362 821.673 710.738 820.69 713.524 820.69H722.683C725.47 820.69 727.846 821.672 729.81 823.638C731.776 825.604 732.759 827.979 732.759 830.765V839.925Z" fill="white"/>
<path d="M820.69 820.69H791.379V839.925C791.379 842.711 792.362 845.086 794.328 847.052C796.293 849.017 798.669 850 801.455 850H820.69V820.69Z" fill="white"/>
<path d="M839.925 820.69H820.69V850H839.925C842.71 850 845.086 849.017 847.052 847.052C849.017 845.086 850 842.711 850 839.925V830.765C850 827.979 849.017 825.603 847.052 823.638C845.086 821.673 842.71 820.69 839.925 820.69Z" fill="white"/>
<path d="M174.397 0H30.7759H0V30.7759V174.397V205.172H30.7759H174.397H205.172V174.397V30.7759V0H174.397ZM174.397 174.397H30.7759V30.7759H174.397V174.397Z" fill="white"/>
<path d="M819.224 0H675.603H644.828V30.7759V174.397V205.172H675.603H819.224H850V174.397V30.7759V0H819.224ZM819.224 174.397H675.603V30.7759H819.224V174.397Z" fill="white"/>
<path d="M174.397 644.828H30.7759H0V675.603V819.224V850H30.7759H174.397H205.172V819.224V675.603V644.828H174.397ZM174.397 819.224H30.7759V675.603H174.397V819.224Z" fill="white"/>
<path d="M146.552 58.6206H58.6207V146.552H146.552V58.6206Z" fill="white"/>
<path d="M791.379 58.6206H703.448V146.552H791.379V58.6206Z" fill="white"/>
<path d="M146.552 703.448H58.6207V791.379H146.552V703.448Z" fill="white"/>
</svg>
